<svg width="264" height="44" viewBox="0 0 264 44" fill="none" xmlns="http://www.w3.org/2000/svg">
<g filter="url(#filter0_dd_95_2594)">
<rect x="2" y="1" width="260" height="40" rx="2" fill="white" shape-rendering="crispEdges"/>
<path fill-rule="evenodd" clip-rule="evenodd" d="M33.64 21.2046C33.64 20.5664 33.5827 19.9527 33.4764 19.3636H25V22.845H29.8436C29.635 23.97 29.0009 24.9232 28.0477 25.5614V27.8196H30.9564C32.6582 26.2527 33.64 23.9455 33.64 21.2046Z" fill="#4285F4"/>
<path fill-rule="evenodd" clip-rule="evenodd" d="M25 30C27.43 30 29.4673 29.1941 30.9564 27.8195L28.0477 25.5614C27.2418 26.1014 26.2109 26.4204 25 26.4204C22.6559 26.4204 20.6718 24.8373 19.9641 22.71H16.9573V25.0418C18.4382 27.9832 21.4818 30 25 30Z" fill="#34A853"/>
<path fill-rule="evenodd" clip-rule="evenodd" d="M19.9641 22.71C19.7841 22.17 19.6818 21.5932 19.6818 21C19.6818 20.4068 19.7841 19.83 19.9641 19.29V16.9582H16.9573C16.3477 18.1732 16 19.5477 16 21C16 22.4523 16.3477 23.8268 16.9573 25.0418L19.9641 22.71Z" fill="#FBBC05"/>
<path fill-rule="evenodd" clip-rule="evenodd" d="M25 15.5795C26.3214 15.5795 27.5077 16.0336 28.4405 16.9255L31.0218 14.3441C29.4632 12.8918 27.4259 12 25 12C21.4818 12 18.4382 14.0168 16.9573 16.9582L19.9641 19.29C20.6718 17.1627 22.6559 15.5795 25 15.5795Z" fill="#EA4335"/>
<path d="M93.2481 15.262H101.158V16.2H93.2481V15.262ZM91.8201 20.694H103.258V21.646H91.8201V20.694ZM96.9301 21.324H98.0921V27.106H96.9301V21.324ZM100.612 15.262H101.746V16.354C101.746 17.67 101.746 19.154 101.27 21.296L100.122 21.142C100.612 19.098 100.612 17.628 100.612 16.354V15.262ZM106.155 14.968H114.303V15.906H106.155V14.968ZM104.699 19.14H116.165V20.092H104.699V19.14ZM113.547 14.968H114.681V15.78C114.681 16.69 114.681 17.866 114.345 19.434L113.211 19.308C113.547 17.768 113.547 16.676 113.547 15.78V14.968ZM106.043 21.338H114.723V24.558H107.233V26.322H106.071V23.662H113.575V22.276H106.043V21.338ZM106.071 26.014H115.045V26.952H106.071V26.014ZM117.578 24.572H129.044V25.538H117.578V24.572ZM122.702 21.856H123.864V24.978H122.702V21.856ZM118.964 15.374H127.63V19.21H120.154V21.744H119.006V18.272H126.482V16.312H118.964V15.374ZM119.006 21.254H127.924V22.206H119.006V21.254ZM133.943 24.572H145.409V25.538H133.943V24.572ZM139.067 21.856H140.229V24.978H139.067V21.856ZM135.329 15.374H143.995V19.21H136.519V21.744H135.371V18.272H142.847V16.312H135.329V15.374ZM135.371 21.254H144.289V22.206H135.371V21.254ZM148.054 15.78H156.202V16.718H148.054V15.78ZM146.822 24.278H158.26V25.244H146.822V24.278ZM155.586 15.78H156.72V17.04C156.72 18.664 156.72 20.47 156.244 23.2L155.082 23.088C155.586 20.498 155.586 18.608 155.586 17.04V15.78ZM168.899 14.45H170.075V23.69H168.899V14.45ZM161.941 25.86H170.453V26.812H161.941V25.86ZM161.941 22.738H163.089V26.182H161.941V22.738ZM163.285 15.318C165.175 15.318 166.575 16.606 166.575 18.44C166.575 20.26 165.175 21.562 163.285 21.562C161.395 21.562 159.981 20.26 159.981 18.44C159.981 16.606 161.395 15.318 163.285 15.318ZM163.285 16.326C162.053 16.326 161.115 17.194 161.115 18.44C161.115 19.672 162.053 20.54 163.285 20.54C164.517 20.54 165.455 19.672 165.455 18.44C165.455 17.194 164.517 16.326 163.285 16.326Z" fill="black" fill-opacity="0.54"/>
</g>
<defs>
<filter id="filter0_dd_95_2594" x="0" y="0" width="264" height="44" filterUnits="userSpaceOnUse" color-interpolation-filters="sRGB">
<feFlood flood-opacity="0" result="BackgroundImageFix"/>
<feColorMatrix in="SourceAlpha" type="matrix" values="0 0 0 0 0 0 0 0 0 0 0 0 0 0 0 0 0 0 127 0" result="hardAlpha"/>
<feOffset dy="1"/>
<feGaussianBlur stdDeviation="1"/>
<feColorMatrix type="matrix" values="0 0 0 0 0 0 0 0 0 0 0 0 0 0 0 0 0 0 0.25 0"/>
<feBlend mode="normal" in2="BackgroundImageFix" result="effect1_dropShadow_95_2594"/>
<feColorMatrix in="SourceAlpha" type="matrix" values="0 0 0 0 0 0 0 0 0 0 0 0 0 0 0 0 0 0 127 0" result="hardAlpha"/>
<feOffset/>
<feComposite in2="hardAlpha" operator="out"/>
<feColorMatrix type="matrix" values="0 0 0 0 0 0 0 0 0 0 0 0 0 0 0 0 0 0 0.08 0"/>
<feBlend mode="normal" in2="effect1_dropShadow_95_2594" result="effect2_dropShadow_95_2594"/>
<feBlend mode="normal" in="SourceGraphic" in2="effect2_dropShadow_95_2594" result="shape"/>
</filter>
</defs>
</svg>
