<svg width="260" height="40" viewBox="0 0 260 40" fill="none" xmlns="http://www.w3.org/2000/svg">
<rect width="260" height="40" rx="6" fill="#FEE500"/>
<g clip-path="url(#clip0_107_1565)">
<path fill-rule="evenodd" clip-rule="evenodd" d="M23.5 11.6001C18.5292 11.6001 14.5 14.7131 14.5 18.5524C14.5 20.9401 16.0584 23.0451 18.4315 24.2971L17.433 27.9446C17.3448 28.2669 17.7134 28.5238 17.9965 28.337L22.3733 25.4483C22.7427 25.4839 23.1181 25.5047 23.5 25.5047C28.4705 25.5047 32.4999 22.3919 32.4999 18.5524C32.4999 14.7131 28.4705 11.6001 23.5 11.6001Z" fill="black"/>
</g>
<path d="M96.215 13.715C96.2 18.29 94.115 21.35 90.29 23.36L89.3 22.25C91.235 21.365 92.855 19.94 93.77 18.095L89.855 18.515L89.615 17.18L94.28 16.835C94.445 16.235 94.565 15.62 94.61 14.96H90.29V13.715H96.215ZM99.83 12.32V17.54H101.9V18.815H99.83V25.685H98.285V12.32H99.83ZM109.194 13.715C109.179 18.29 107.094 21.35 103.269 23.36L102.279 22.25C104.214 21.365 105.834 19.94 106.749 18.095L102.834 18.515L102.594 17.18L107.259 16.835C107.424 16.235 107.544 15.62 107.589 14.96H103.269V13.715H109.194ZM112.809 12.32V17.54H114.879V18.815H112.809V25.685H111.264V12.32H112.809ZM127.482 23.975H115.407V22.745H120.657V20.465C118.182 20.225 116.607 18.815 116.607 16.82C116.607 14.615 118.542 13.145 121.437 13.145C124.377 13.145 126.297 14.615 126.297 16.82C126.297 18.83 124.692 20.24 122.187 20.48V22.745H127.482V23.975ZM124.752 16.835C124.752 15.41 123.447 14.405 121.437 14.405C119.472 14.405 118.152 15.41 118.152 16.835C118.152 18.245 119.472 19.205 121.437 19.205C123.432 19.205 124.752 18.245 124.752 16.835ZM143.231 20.525H139.106V22.76H144.401V23.99H132.326V22.76H137.576V20.525H133.871V16.205H141.311V14.48H133.826V13.25H142.841V17.45H135.416V19.28H143.231V20.525ZM157.379 23.735H145.304V22.49H157.379V23.735ZM155.804 13.76C155.804 17.3 155.579 19.805 155.219 21.56L153.704 21.365C154.034 20.03 154.259 17.135 154.259 14.975H146.699V13.76H155.804ZM169.278 22.01H167.748V12.32H169.278V22.01ZM169.593 25.295H160.443V21.095H161.973V24.065H169.593V25.295ZM165.528 16.58C165.528 18.485 164.148 19.85 162.108 19.85C160.068 19.85 158.658 18.485 158.658 16.595C158.658 14.69 160.053 13.31 162.108 13.31C164.148 13.31 165.528 14.675 165.528 16.58ZM163.998 16.58C163.998 15.41 163.278 14.585 162.108 14.585C160.968 14.585 160.203 15.44 160.203 16.58C160.203 17.675 160.968 18.545 162.108 18.545C163.278 18.545 163.998 17.675 163.998 16.58Z" fill="black" fill-opacity="0.85"/>
<defs>
<clipPath id="clip0_107_1565">
<rect width="17.9999" height="18" fill="white" transform="translate(14.5 11)"/>
</clipPath>
</defs>
</svg>
