<svg width="260" height="40" viewBox="0 0 260 40" fill="none" xmlns="http://www.w3.org/2000/svg">
<rect width="260" height="40" rx="4" fill="#03C75A"/>
<g clip-path="url(#clip0_107_1572)">
<path d="M25.8491 20.5627L19.9169 12H15V28H20.1509V19.436L26.0831 28H31V12H25.8491V20.5627Z" fill="white"/>
</g>
<path d="M96.8192 17.765H93.9842V16.67H96.8192V12.725H98.0942V24.905H96.8192V17.765ZM100.734 25.55H99.4592V12.44H100.734V25.55ZM95.9192 21.785C94.9892 22.01 93.2042 22.19 91.5692 22.22H90.3242V13.85H91.6442V21.08C92.9342 21.08 94.8242 20.945 95.7242 20.69L95.9192 21.785ZM113.458 25.55H112.123V12.44H113.458V25.55ZM103.108 18.05C103.108 15.455 104.158 13.43 106.483 13.43C108.808 13.43 109.843 15.455 109.843 18.065C109.843 20.66 108.808 22.7 106.483 22.7C104.158 22.7 103.108 20.66 103.108 18.05ZM108.523 18.065C108.523 16.04 107.833 14.57 106.483 14.57C105.148 14.57 104.458 16.04 104.458 18.065C104.458 20.09 105.148 21.545 106.483 21.545C107.833 21.545 108.523 20.09 108.523 18.065ZM125.131 18.365H122.776V17.24H125.131V12.44H126.451V25.55H125.131V18.365ZM122.191 22.25H116.026V13.505H117.331V16.805H120.856V13.49H122.191V22.25ZM120.856 21.17V17.855H117.331V21.17H120.856ZM144.375 23.885H132.54V22.805H137.76V20.735H133.965V16.52H141.585V14.6H133.935V13.52H142.905V17.6H135.285V19.655H143.265V20.735H139.095V22.805H144.375V23.885ZM157.354 23.645H145.519V22.565H157.354V23.645ZM155.779 13.925C155.779 16.91 155.554 19.925 155.164 21.62L153.874 21.455C154.204 20.195 154.429 16.97 154.429 14.99H146.749V13.925H155.779ZM169.252 21.965H167.917V12.44H169.252V21.965ZM169.552 25.145H160.627V21.065H161.962V24.08H169.552V25.145ZM162.292 13.325C164.317 13.325 165.802 14.72 165.802 16.595C165.802 18.485 164.317 19.79 162.292 19.79C160.282 19.79 158.797 18.485 158.797 16.61C158.797 14.72 160.282 13.325 162.292 13.325ZM162.292 14.465C161.062 14.465 160.192 15.365 160.192 16.58C160.192 17.78 161.062 18.68 162.292 18.68C163.582 18.68 164.392 17.795 164.392 16.595C164.392 15.35 163.582 14.465 162.292 14.465Z" fill="white"/>
<defs>
<clipPath id="clip0_107_1572">
<rect width="16" height="16" fill="white" transform="translate(15 12)"/>
</clipPath>
</defs>
</svg>
