<?xml version="1.0" standalone="no"?>
<!DOCTYPE svg PUBLIC "-//W3C//DTD SVG 20010904//EN"
 "http://www.w3.org/TR/2001/REC-SVG-20010904/DTD/svg10.dtd">
<svg version="1.0" xmlns="http://www.w3.org/2000/svg"
 width="862.000000pt" height="862.000000pt" viewBox="0 0 862.000000 862.000000"
 preserveAspectRatio="xMidYMid meet">
<metadata>
Created by potrace 1.14, written by Peter Selinger 2001-2017
</metadata>
<g transform="translate(0.000000,862.000000) scale(0.100000,-0.100000)"
fill="#000000" stroke="none">
<path d="M3618 8343 c0 -4 -2 -14 -2 -22 -1 -8 -8 -16 -16 -18 -11 -4 -12 -2
-2 5 9 6 7 11 -11 19 -19 9 -24 8 -24 -3 0 -7 5 -10 11 -7 6 4 5 0 -1 -9 -7
-8 -9 -19 -5 -23 4 -5 1 -5 -6 -1 -7 4 -10 11 -7 16 3 4 -4 10 -15 13 -12 3
-18 1 -14 -5 4 -6 -1 -8 -14 -4 -11 4 -23 2 -27 -4 -3 -6 -12 -7 -18 -3 -7 4
-6 -1 2 -11 13 -16 12 -16 -15 -5 -16 7 -34 17 -41 22 -13 10 -12 -18 2 -30 4
-4 5 -2 0 6 -5 9 -4 12 3 7 6 -4 8 -14 5 -22 -5 -13 -7 -13 -14 -2 -6 10 -13
10 -26 2 -24 -14 -43 -7 -36 13 4 11 2 14 -5 9 -7 -4 -12 -16 -12 -27 0 -10
-4 -19 -10 -19 -5 0 -7 8 -4 18 5 13 4 14 -4 3 -12 -16 -35 -5 -26 12 5 8 3 8
-6 0 -12 -11 -11 -16 6 -29 10 -8 13 -13 6 -9 -7 4 -20 1 -28 -6 -12 -10 -13
-9 -8 5 3 9 1 16 -5 16 -6 0 -11 -6 -11 -12 0 -9 -4 -8 -10 2 -5 8 -10 11 -10
6 0 -5 -8 -2 -17 5 -16 12 -16 11 0 -8 14 -16 15 -23 6 -29 -7 -4 -10 -3 -6 3
4 6 0 14 -9 17 -25 9 -27 7 -13 -11 8 -10 9 -14 2 -10 -6 4 -14 3 -18 -2 -3
-6 -13 -7 -22 -4 -12 5 -14 3 -8 -8 4 -8 5 -11 0 -7 -4 4 -14 3 -21 -3 -9 -7
-12 -6 -10 5 1 9 6 19 11 23 4 4 5 2 1 -4 -9 -17 -1 -17 12 0 9 10 6 13 -13
13 -13 0 -21 -4 -19 -8 3 -4 -1 -9 -8 -9 -15 -2 -47 -5 -65 -7 -7 -1 -13 -7
-13 -14 0 -9 3 -9 12 0 16 16 25 15 31 -2 4 -10 0 -12 -15 -8 -14 3 -19 1 -14
-6 3 -6 1 -14 -5 -18 -7 -4 -9 -3 -6 3 4 6 1 15 -6 20 -19 13 -50 10 -54 -7
-4 -13 -3 -13 7 0 10 13 11 13 7 0 -2 -8 -8 -15 -13 -15 -5 -1 -24 -9 -41 -18
-18 -10 -33 -14 -33 -10 0 5 -7 -1 -15 -11 -8 -11 -15 -14 -15 -7 0 7 -4 9
-10 6 -5 -3 -10 -1 -10 5 0 7 7 9 16 6 8 -3 12 -2 9 4 -3 5 4 7 15 5 11 -2 20
1 20 6 0 6 4 8 9 5 4 -3 17 2 27 10 10 9 13 13 7 9 -7 -3 -23 -8 -35 -11 -88
-20 -100 -28 -76 -52 7 -7 9 -12 4 -12 -4 0 -14 7 -22 15 -13 13 -18 13 -39
-1 -15 -10 -25 -12 -30 -5 -3 6 -11 11 -16 11 -6 0 -3 -7 5 -16 14 -14 14 -34
0 -34 -3 0 -3 4 1 9 3 5 1 12 -5 16 -5 3 -10 -1 -10 -9 0 -20 -17 -29 -26 -15
-4 7 -3 9 3 6 5 -3 10 0 10 7 0 7 -6 13 -14 13 -7 0 -11 -3 -8 -5 9 -9 -17
-32 -28 -25 -6 3 -7 1 -3 -6 4 -6 11 -9 15 -7 4 3 13 0 21 -5 15 -9 3 -8 -56
5 -13 3 -21 -1 -21 -10 0 -10 4 -11 13 -3 8 7 14 6 20 -2 4 -7 3 -9 -4 -5 -6
3 -13 2 -17 -4 -4 -6 -10 -8 -15 -5 -4 3 -10 -1 -13 -9 -8 -21 -47 -9 -40 12
4 14 3 15 -5 2 -8 -10 -8 -18 0 -27 9 -11 6 -12 -15 -4 -21 8 -25 7 -20 -4 3
-8 10 -12 16 -8 6 3 7 1 3 -5 -4 -6 -13 -9 -21 -5 -9 3 -22 0 -29 -6 -9 -7
-17 -8 -20 -2 -7 11 -32 9 -43 -4 -4 -4 -2 -5 5 -1 16 9 17 -30 0 -40 -8 -5
-9 -2 -5 9 3 10 2 17 -3 17 -6 0 -10 -8 -10 -17 0 -15 -2 -16 -9 -3 -6 8 -7
18 -4 24 3 5 1 6 -5 2 -11 -6 -9 -34 3 -59 4 -6 -1 -3 -9 7 -9 11 -16 25 -16
30 0 6 -5 4 -10 -4 -5 -9 -7 -29 -5 -45 2 -25 1 -27 -10 -12 -6 9 -16 13 -21
9 -4 -4 -2 1 5 11 8 9 11 20 7 24 -3 3 -6 1 -6 -6 0 -7 -5 -9 -10 -6 -6 4 -10
3 -9 -2 1 -4 1 -16 0 -26 -1 -15 -4 -16 -22 -6 -16 8 -24 8 -33 -1 -8 -8 -7
-10 5 -5 10 4 20 1 24 -5 3 -6 3 -10 -2 -9 -23 4 -43 -2 -40 -13 1 -7 -5 -13
-13 -13 -8 0 -14 -6 -13 -13 2 -7 -2 -12 -8 -12 -6 0 -8 10 -5 23 3 12 3 17 0
10 -3 -7 -13 -9 -22 -6 -10 3 -13 1 -7 -4 6 -4 11 -14 13 -22 2 -11 0 -12 -10
-3 -8 6 -19 7 -27 3 -10 -7 -8 -10 8 -16 35 -11 18 -16 -18 -5 -26 7 -30 6
-22 -3 7 -9 7 -17 -1 -27 -8 -12 -9 -12 -4 3 3 9 3 17 -1 17 -10 0 -43 -42
-38 -50 2 -3 -2 -7 -10 -7 -12 0 -12 3 -2 16 10 14 10 14 -4 4 -9 -7 -20 -9
-24 -5 -5 4 -5 1 -1 -6 4 -7 -2 -24 -13 -38 -12 -15 -21 -23 -21 -17 0 13 -38
14 -46 1 -4 -7 -2 -8 4 -4 7 4 12 2 12 -4 0 -6 6 -8 13 -4 7 4 9 3 4 -2 -5 -5
-14 -9 -20 -9 -7 -1 -11 -5 -10 -11 1 -5 -10 -11 -23 -12 -18 -1 -23 2 -18 11
5 9 3 9 -7 -1 -11 -10 -11 -15 -2 -20 9 -5 6 -12 -10 -21 -20 -13 -21 -13 -8
2 7 10 9 17 3 17 -11 0 -24 -28 -17 -39 2 -4 -2 -8 -10 -8 -8 0 -12 4 -9 9 3
4 0 8 -5 8 -6 0 -11 -9 -11 -19 0 -11 -4 -23 -10 -26 -6 -4 -7 1 -4 12 4 12 0
10 -14 -7 -11 -13 -18 -28 -15 -33 3 -5 -4 -4 -15 2 -23 12 -31 5 -27 -21 2
-11 -2 -15 -11 -11 -8 3 -11 9 -8 14 3 5 -2 6 -10 3 -13 -5 -14 -8 -1 -20 8
-8 11 -22 8 -30 -3 -9 -9 -12 -12 -7 -6 8 -20 9 -38 3 -5 -1 -11 -2 -16 -1 -4
0 -6 -2 -5 -6 0 -5 -4 -19 -10 -33 -6 -14 -11 -18 -12 -10 0 13 -1 13 -10 0
-6 -9 -5 -17 3 -22 8 -5 6 -8 -5 -8 -10 0 -18 -4 -18 -9 0 -10 -39 -27 -53
-23 -5 1 -5 -3 -1 -9 5 -9 2 -10 -12 -6 -14 5 -13 2 6 -13 l25 -20 -27 10
c-15 5 -27 6 -27 2 5 -28 -3 -41 -21 -37 -11 2 -20 0 -20 -6 0 -5 6 -9 13 -10
6 0 1 -5 -13 -11 -14 -6 -29 -10 -33 -9 -5 1 -6 -3 -3 -7 7 -12 -28 -44 -39
-35 -4 5 -5 2 -1 -5 6 -11 14 -8 35 12 27 26 78 45 66 25 -4 -5 -10 -7 -14 -5
-12 8 -52 -24 -45 -36 4 -7 2 -8 -4 -4 -11 7 -38 -32 -34 -47 1 -5 -2 -6 -8
-2 -8 5 -8 11 0 20 8 9 8 15 0 20 -5 3 -10 5 -11 3 -7 -30 -10 -45 -11 -55 -1
-9 -5 -10 -14 -2 -8 7 -14 6 -20 -2 -4 -7 -3 -10 2 -7 5 3 15 -1 22 -8 11 -13
9 -14 -13 -10 -24 5 -27 3 -22 -20 2 -13 0 -27 -6 -31 -5 -3 -7 -1 -4 4 4 6
-1 13 -11 15 -11 3 -19 0 -19 -8 0 -7 4 -11 9 -8 4 3 8 0 8 -7 0 -6 -8 -9 -20
-6 -17 4 -18 2 -9 -14 6 -12 6 -19 0 -19 -5 0 -12 6 -15 13 -3 6 -5 -2 -3 -19
2 -23 0 -31 -10 -27 -7 3 -10 10 -6 17 3 6 0 5 -8 -2 -8 -7 -14 -18 -14 -25
-1 -7 -7 -11 -14 -9 -7 1 -10 -2 -7 -7 6 -9 -11 -26 -26 -26 -3 0 -10 -3 -14
-7 -3 -4 3 -6 14 -3 18 3 21 -1 20 -20 -1 -13 -7 -23 -13 -22 -5 1 -9 -3 -8
-10 2 -8 -4 -10 -15 -6 -15 6 -15 5 -3 -10 12 -15 12 -17 -4 -11 -13 5 -16 4
-11 -4 5 -8 2 -10 -8 -6 -9 3 -16 1 -16 -5 0 -6 -8 -8 -17 -5 -14 5 -15 4 -4
-4 8 -6 19 -9 25 -8 6 2 8 1 4 -1 -5 -3 -8 -9 -8 -14 0 -6 5 -7 12 -3 7 5 8 3
3 -5 -5 -9 -10 -10 -18 -2 -15 15 -30 14 -20 -1 11 -19 13 -39 2 -32 -5 3 -7
9 -5 13 3 4 0 8 -7 8 -8 0 -12 -14 -10 -38 1 -21 -2 -41 -6 -43 -4 -3 -7 11
-6 30 1 19 -1 32 -4 28 -3 -3 -6 -9 -6 -12 0 -4 -4 -13 -8 -19 -5 -7 -5 -13
-2 -13 3 0 0 -6 -7 -14 -7 -8 -16 -12 -20 -9 -4 2 -5 -3 -2 -12 5 -11 2 -14
-12 -9 -15 5 -16 4 -5 -4 16 -11 44 -5 36 8 -3 5 -1 11 4 14 22 14 19 -14 -4
-32 -13 -11 -21 -23 -17 -28 4 -5 0 -3 -9 4 -14 10 -18 10 -23 -3 -3 -9 -2
-14 3 -11 5 3 11 0 14 -8 4 -9 -3 -13 -21 -12 -21 1 -26 -3 -24 -17 2 -10 -6
-21 -20 -27 -23 -10 -23 -11 -1 -6 18 3 22 0 19 -17 -1 -12 -9 -23 -17 -25
-11 -3 -11 -1 1 8 10 8 11 10 2 8 -8 -2 -13 -7 -12 -12 1 -5 -2 -12 -7 -15 -4
-3 -17 -22 -27 -41 -10 -19 -13 -29 -5 -22 16 15 29 16 29 2 0 -5 -3 -9 -7 -8
-5 0 -16 -2 -25 -6 -22 -10 -13 -27 9 -19 12 5 10 0 -5 -15 -12 -12 -22 -27
-22 -34 0 -6 -3 -9 -6 -6 -3 4 -1 16 5 27 9 17 9 20 -3 15 -9 -3 -15 -9 -14
-12 2 -20 -3 -32 -12 -27 -6 3 -7 -1 -4 -9 3 -9 11 -13 18 -10 6 3 4 0 -5 -8
-9 -7 -14 -18 -12 -24 2 -6 -9 -23 -23 -38 -15 -15 -20 -24 -12 -21 9 4 19 1
24 -6 4 -7 3 -10 -3 -6 -6 4 -18 0 -28 -7 -14 -10 -15 -15 -5 -21 9 -5 11 -4
6 3 -5 8 -1 10 9 5 13 -4 14 -8 4 -14 -7 -4 -16 -6 -20 -4 -4 3 -9 -9 -13 -25
-3 -17 -9 -30 -13 -29 -5 1 -15 1 -23 0 -13 -1 -13 -2 0 -11 13 -9 12 -12 -4
-25 -19 -15 -19 -15 5 -16 l24 0 -23 -9 c-12 -5 -22 -15 -22 -22 0 -10 2 -10
9 0 7 11 9 11 14 -2 4 -9 3 -15 -1 -14 -13 2 -42 -14 -42 -24 0 -5 5 -6 10 -3
6 3 10 1 10 -5 0 -6 5 -8 10 -5 6 3 10 1 10 -5 0 -6 -8 -9 -17 -6 -25 8 -51
-9 -28 -17 10 -5 14 -3 9 5 -4 7 -3 8 4 4 9 -5 9 -13 2 -27 -6 -11 -8 -25 -3
-32 4 -6 -6 -3 -22 7 -22 14 -26 15 -17 4 10 -13 10 -17 0 -20 -8 -3 -6 -7 6
-11 12 -5 15 -3 10 6 -5 8 -2 7 9 -2 20 -16 22 -22 5 -18 -7 1 -12 -3 -13 -10
0 -6 -3 -15 -7 -19 -4 -3 -5 3 -3 15 2 13 0 19 -6 15 -6 -3 -8 -9 -5 -12 3 -3
1 -11 -5 -19 -6 -7 -8 -13 -4 -13 4 0 2 -7 -5 -15 -7 -8 -17 -12 -23 -8 -6 3
-7 1 -3 -6 6 -9 11 -9 21 -1 9 8 14 7 18 -4 4 -9 1 -18 -5 -22 -7 -5 -8 -2 -3
6 5 9 4 11 -3 6 -17 -10 -15 -24 6 -29 10 -3 4 -5 -12 -6 -28 -1 -29 -2 -11
-15 11 -8 24 -12 29 -9 5 4 6 1 2 -6 -4 -6 -11 -9 -15 -6 -5 2 -19 -4 -31 -15
-13 -11 -18 -20 -12 -20 7 0 12 -5 12 -11 0 -5 -4 -8 -8 -5 -5 3 -9 -2 -9 -10
0 -9 6 -13 16 -9 8 3 12 3 8 -1 -4 -4 -2 -12 3 -19 7 -8 2 -15 -16 -24 -19 -8
-25 -17 -21 -32 4 -13 -2 -28 -15 -41 l-20 -20 23 7 c22 7 23 6 9 -10 -13 -15
-12 -19 3 -30 10 -7 14 -16 9 -19 -6 -3 -12 1 -16 9 -3 8 -11 15 -18 15 -9 0
-9 -3 -2 -8 28 -19 23 -48 -8 -43 -12 2 -9 -6 9 -24 16 -16 15 -18 -8 -37 -15
-12 -17 -18 -7 -15 9 3 22 0 28 -8 9 -11 7 -12 -10 -8 -16 4 -19 2 -14 -11 3
-9 10 -13 15 -10 5 3 6 -2 3 -10 -8 -21 -21 -20 -28 2 -4 14 -5 14 -4 -3 2
-72 -2 -87 -19 -81 -16 5 -16 5 -2 -6 9 -7 16 -16 17 -21 0 -4 3 -13 6 -20 3
-6 3 0 1 14 -2 17 2 26 11 26 9 0 11 -4 4 -12 -5 -7 -7 -15 -4 -18 15 -14 -8
-27 -29 -16 -17 9 -20 9 -10 -1 6 -7 9 -19 6 -26 -5 -12 8 -19 30 -15 4 0 7
-4 7 -10 0 -6 -6 -9 -14 -6 -10 4 -13 -3 -11 -26 2 -18 -2 -38 -8 -46 -10 -12
-9 -13 3 -6 8 4 12 5 8 0 -4 -4 -2 -15 5 -23 10 -13 9 -14 -10 -3 -19 10 -22
9 -17 -4 4 -8 10 -15 14 -15 4 0 11 -7 14 -16 5 -14 4 -15 -9 -4 -13 11 -15 9
-14 -11 1 -13 1 -28 -1 -34 -5 -21 1 -34 18 -38 16 -4 16 -5 0 -6 -18 -1 -20
-5 -20 -41 0 -35 2 -41 12 -35 6 3 10 1 10 -4 0 -6 -4 -11 -10 -11 -5 0 -10
-5 -10 -11 0 -5 4 -8 9 -5 5 4 8 -2 6 -11 -1 -10 2 -24 8 -31 7 -9 6 -11 -7
-6 -10 4 -15 13 -12 20 3 8 0 11 -9 8 -12 -5 -12 -10 1 -30 9 -13 21 -21 27
-17 6 3 7 1 3 -6 -4 -6 -11 -9 -16 -6 -14 8 -20 -23 -6 -34 9 -7 17 -7 26 2
12 10 12 9 1 -5 -7 -9 -19 -14 -27 -11 -8 3 -14 0 -14 -7 0 -6 4 -9 9 -5 6 3
15 -3 21 -14 9 -17 8 -19 -5 -15 -8 4 -15 1 -15 -5 0 -10 14 -15 33 -12 5 1 5
-3 2 -9 -4 -6 -13 -9 -21 -6 -8 3 -14 1 -14 -4 0 -9 15 -14 33 -11 5 1 6 -3 2
-9 -3 -6 -12 -7 -18 -4 -8 5 -8 3 1 -7 15 -16 16 -29 1 -29 -5 0 -7 5 -3 12 4
7 3 8 -5 4 -6 -4 -9 -12 -6 -17 15 -23 13 -53 -3 -66 -15 -13 -15 -13 5 -4 12
6 30 11 40 10 14 0 13 -2 -6 -10 -17 -7 -21 -14 -16 -27 14 -33 15 -76 3 -85
-9 -5 -6 -6 8 -3 14 4 21 2 21 -8 0 -9 -4 -13 -8 -11 -4 3 -9 -2 -12 -10 -4
-9 -1 -12 7 -9 18 7 30 -12 15 -22 -8 -5 -9 -3 -4 7 5 8 4 11 0 6 -13 -12 -16
-47 -4 -47 5 0 7 6 3 13 -5 8 -2 8 9 -2 18 -14 24 -26 8 -17 -5 3 -11 -6 -14
-19 -2 -14 0 -28 5 -31 4 -3 5 -10 2 -16 -5 -7 -1 -9 9 -5 9 3 19 1 23 -5 4
-7 3 -8 -4 -4 -8 4 -13 -1 -14 -13 0 -12 -1 -27 -2 -33 -1 -7 -5 -17 -11 -21
-6 -5 -4 -7 5 -4 8 2 14 11 12 21 -2 9 1 16 7 16 5 0 8 -8 6 -17 -1 -10 2 -24
8 -32 14 -17 18 -43 6 -35 -5 3 -9 -5 -9 -18 0 -18 2 -20 10 -8 6 9 10 10 10
3 0 -6 -5 -15 -10 -18 -6 -4 -7 -11 -4 -17 4 -6 -2 -17 -12 -25 -19 -14 -19
-14 1 -11 11 2 20 -3 20 -10 0 -7 5 -16 11 -20 13 -9 27 -45 15 -37 -5 3 -13
0 -17 -7 -4 -7 -3 -10 1 -5 5 4 16 0 26 -8 13 -13 15 -23 8 -53 -6 -28 -4 -43
9 -62 9 -14 15 -31 14 -39 -2 -7 1 -10 7 -7 5 4 10 -2 10 -11 1 -43 5 -54 17
-49 9 3 11 -7 9 -37 -3 -32 -1 -38 6 -24 6 9 15 17 22 17 9 0 9 -2 0 -8 -16
-10 -20 -44 -5 -48 7 -1 8 0 2 3 -12 6 -4 23 11 23 6 0 8 -4 4 -9 -3 -5 -1
-12 4 -15 17 -11 5 -41 -15 -38 -16 2 -16 1 -4 -7 8 -6 24 -8 35 -5 11 3 16 2
10 -3 -5 -4 -17 -17 -25 -27 -12 -16 -12 -18 -1 -11 11 6 13 4 9 -7 -4 -8 0
-15 8 -15 7 0 11 4 8 8 -2 4 1 11 7 15 8 5 9 3 4 -6 -6 -10 -4 -12 11 -6 18 7
18 6 -1 -12 -11 -11 -24 -17 -30 -14 -5 3 -2 -3 7 -14 15 -15 20 -16 30 -5 11
12 9 13 -7 7 -16 -6 -18 -5 -8 5 10 9 16 10 24 2 8 -8 8 -13 0 -17 -6 -4 -11
-17 -10 -29 l0 -22 9 23 c14 34 18 26 10 -18 -6 -32 -4 -40 7 -40 9 0 13 -6
10 -15 -9 -21 11 -29 30 -13 14 11 16 11 8 -2 -13 -20 -15 -60 -4 -61 5 -1 14
-2 21 -3 6 0 12 -9 14 -19 2 -18 2 -18 -17 -1 -11 10 -19 12 -19 6 0 -7 5 -12
11 -12 5 0 7 -5 4 -10 -4 -6 -3 -10 2 -9 26 5 35 -1 23 -16 -10 -12 -8 -14 7
-10 12 2 20 -3 21 -11 1 -8 3 -21 4 -29 1 -8 7 -15 14 -15 6 0 15 -7 18 -16 5
-14 4 -15 -9 -4 -13 11 -14 10 -9 -4 3 -9 12 -16 19 -16 7 0 16 -7 19 -16 10
-26 6 -30 -9 -10 -8 11 -15 15 -15 9 0 -5 9 -18 20 -28 11 -10 17 -22 13 -28
-3 -6 -1 -7 6 -3 9 6 9 11 1 21 -7 9 -6 16 7 26 16 12 17 12 5 -2 -10 -13 -10
-18 1 -28 8 -6 18 -7 22 -3 5 4 5 1 1 -6 -4 -7 -12 -10 -17 -7 -5 4 -9 1 -9
-4 0 -6 5 -11 10 -11 6 0 10 -5 10 -11 0 -5 -4 -7 -10 -4 -5 3 -10 1 -10 -4 0
-14 13 -14 28 1 9 9 12 9 12 -1 0 -7 5 -9 12 -5 8 4 10 3 5 -2 -5 -5 -13 -9
-18 -9 -12 0 -10 -16 5 -36 6 -9 21 -15 36 -13 l25 4 -24 -14 c-21 -11 -21
-14 -6 -20 15 -5 15 -9 4 -24 -13 -15 -12 -16 4 -3 14 11 15 17 5 30 -8 10 -5
9 10 -3 23 -20 30 -32 12 -21 -5 3 -10 1 -10 -4 0 -6 5 -11 10 -11 6 0 10 -6
8 -14 -2 -8 2 -15 7 -15 6 0 9 8 7 17 -2 13 -1 14 6 3 5 -7 16 -18 23 -23 11
-8 10 -9 -3 -4 -12 3 -18 0 -18 -10 0 -10 6 -14 15 -10 9 3 18 -1 21 -9 4 -8
9 -13 13 -10 4 2 7 -12 6 -31 -1 -19 0 -32 3 -30 2 3 14 0 26 -6 11 -7 25 -11
29 -10 5 1 6 -2 2 -8 -5 -8 -11 -8 -20 0 -9 7 -16 6 -26 -7 -12 -16 -12 -17 2
-6 11 9 18 10 27 1 8 -8 15 -8 25 0 10 9 13 6 13 -13 0 -13 -4 -21 -8 -19 -5
3 -5 10 -2 16 4 7 2 8 -5 4 -6 -4 -9 -11 -6 -16 3 -4 -1 -11 -7 -14 -9 -4 -8
-5 2 -5 32 2 41 -1 34 -14 -5 -7 -2 -7 10 2 9 8 16 10 15 5 -4 -21 2 -28 11
-14 8 11 9 8 4 -12 -6 -27 2 -33 37 -30 3 0 4 -13 3 -29 -2 -30 15 -36 24 -9
3 8 0 10 -8 5 -9 -5 -11 -4 -6 4 4 6 12 9 17 6 10 -7 8 -33 -6 -55 -7 -13 -6
-13 7 -2 22 18 60 -1 51 -25 -5 -12 -3 -14 8 -8 12 7 12 6 0 -9 -13 -16 -13
-17 5 -14 10 1 22 7 25 12 4 5 10 -1 14 -13 3 -12 11 -18 17 -15 7 4 8 2 4 -4
-8 -13 28 -35 39 -24 5 4 5 1 1 -6 -9 -15 -39 -1 -60 30 -9 12 -16 17 -16 11
0 -7 5 -15 10 -18 6 -4 7 -11 4 -17 -4 -6 -3 -8 3 -5 14 9 55 -32 47 -45 -4
-7 -2 -8 4 -4 11 6 16 -5 13 -26 0 -4 5 -5 13 -2 8 3 17 0 21 -6 5 -8 13 -6
28 7 13 11 17 12 11 3 -13 -17 -15 -52 -2 -44 4 3 8 0 8 -6 0 -7 7 -7 23 1 20
11 21 11 8 -5 -8 -9 -10 -16 -5 -15 18 3 34 -1 34 -10 0 -5 -10 -7 -22 -5 -21
4 -21 4 -3 -4 11 -5 25 -7 31 -5 7 2 15 -1 19 -6 3 -6 11 -9 16 -6 5 3 6 -1 2
-11 -5 -13 -2 -15 18 -9 22 7 23 7 9 -10 -9 -11 -10 -16 -2 -11 6 4 12 2 12
-3 0 -14 27 -14 33 -1 3 6 4 5 3 -2 -5 -20 14 -50 28 -45 7 3 18 2 25 -3 10
-5 9 -9 -4 -13 -10 -5 -14 -3 -9 5 4 7 3 8 -4 4 -6 -4 -8 -14 -5 -23 4 -11 8
-13 11 -5 4 14 42 16 42 2 0 -5 -8 -7 -17 -4 -14 5 -15 4 -4 -4 8 -6 20 -8 28
-5 7 3 13 -1 13 -10 0 -10 7 -13 20 -10 18 5 26 -8 22 -38 -1 -4 8 -5 18 -2
11 3 20 0 20 -6 0 -6 -5 -11 -12 -11 -6 0 -9 -3 -6 -6 4 -3 15 -1 26 5 14 7
24 6 39 -4 11 -8 24 -11 28 -7 5 4 5 1 1 -6 -6 -11 -13 -10 -32 3 -21 14 -24
14 -24 0 0 -8 3 -14 8 -14 4 1 14 1 22 0 13 -1 13 -2 0 -11 -20 -13 -4 -13 20
0 15 8 17 6 13 -9 -3 -10 0 -22 6 -25 6 -4 9 -1 5 7 -3 8 1 14 9 14 8 0 14 -9
13 -21 -1 -12 5 -21 14 -21 8 -1 14 -7 12 -15 -3 -11 0 -11 14 1 13 11 18 11
21 2 3 -7 9 -13 14 -13 6 0 8 4 5 9 -14 21 25 3 43 -21 27 -33 26 -37 -1 -31
-13 3 -20 3 -17 0 3 -4 15 -8 28 -10 12 -2 27 -10 32 -18 6 -10 9 -10 9 -1 0
6 5 12 11 12 6 0 9 -7 5 -15 -4 -13 -2 -13 14 -5 13 7 21 7 25 0 4 -6 9 -9 13
-6 4 2 16 -1 27 -5 18 -9 18 -9 -2 -5 -29 5 -30 -10 -2 -19 14 -5 25 -2 30 6
6 10 8 7 6 -8 0 -12 -6 -19 -12 -16 -5 4 -1 -3 9 -15 11 -12 24 -22 30 -21 6
0 6 3 -2 6 -6 2 -9 10 -6 15 5 7 2 8 -6 3 -8 -5 -11 -4 -6 3 8 14 36 4 36 -13
0 -7 7 -16 16 -19 15 -6 15 -4 3 11 -12 15 -12 16 1 8 8 -6 18 -10 22 -10 3 0
10 -4 15 -9 5 -5 3 -6 -4 -2 -8 4 -13 1 -13 -8 0 -19 26 -21 33 -3 4 10 6 10
6 0 1 -7 6 -13 12 -13 5 0 7 5 3 12 -5 7 -3 8 5 4 7 -5 10 -11 7 -14 -3 -3 0
-12 7 -21 11 -14 10 -15 -7 -1 -11 8 -17 10 -13 3 4 -6 4 -13 0 -16 -5 -2 -3
-2 4 -1 7 2 15 -1 19 -7 3 -5 15 -7 26 -3 14 4 18 2 14 -5 -4 -6 0 -11 8 -11
9 0 16 -5 16 -12 0 -6 3 -8 6 -5 4 4 1 13 -6 22 -7 9 -10 18 -6 22 3 3 6 1 6
-6 0 -7 5 -9 10 -6 6 4 10 3 9 -2 -3 -18 2 -33 11 -33 5 0 7 8 4 17 -5 14 -4
15 4 4 6 -8 8 -21 5 -30 -5 -13 -3 -14 8 -4 19 18 34 16 19 -2 -11 -13 -10
-14 4 -9 9 3 16 11 16 17 0 6 3 7 6 4 4 -4 1 -14 -7 -23 -12 -15 -12 -16 7
-10 14 4 26 1 34 -9 10 -12 10 -15 -1 -15 -9 -1 -8 -4 4 -11 10 -6 21 -8 24
-5 4 3 13 0 21 -7 13 -11 14 -9 2 13 -8 15 -15 20 -18 12 -2 -6 -9 -12 -14
-12 -6 0 -8 3 -5 7 4 3 2 12 -4 19 -7 8 -7 14 1 19 6 4 9 2 8 -3 -2 -6 2 -11
7 -12 6 -1 17 -8 26 -16 12 -11 18 -11 29 -1 8 7 10 8 7 1 -4 -7 4 -19 18 -28
14 -9 25 -12 25 -6 0 5 5 10 11 10 8 0 8 -4 2 -12 -13 -16 -13 -48 0 -48 5 0
7 7 4 15 -4 8 -1 17 5 21 7 4 8 3 4 -4 -4 -7 -2 -12 4 -12 6 0 8 -5 4 -12 -6
-10 -4 -10 7 -2 22 16 44 11 41 -11 -3 -16 -1 -17 12 -6 18 15 34 7 45 -22 5
-12 17 -22 27 -22 11 0 18 -5 17 -12 -3 -13 22 -12 34 2 4 4 3 5 -3 2 -17 -9
-49 29 -33 39 7 4 10 3 5 -4 -3 -6 -1 -14 6 -19 13 -8 19 -9 39 -12 8 -1 7 -7
-2 -18 -13 -15 -12 -15 9 -4 12 6 22 7 22 2 0 -5 -6 -11 -12 -14 -7 -3 -2 -5
12 -4 14 0 31 5 38 10 10 8 15 4 19 -12 4 -17 8 -19 14 -9 6 9 9 6 9 -12 0
-19 2 -22 9 -10 6 8 8 17 6 20 -2 4 2 7 9 7 7 0 13 -5 14 -11 2 -26 9 -46 17
-53 4 -4 5 -3 2 3 -4 7 10 11 42 10 45 -1 48 -2 39 -19 -5 -10 -7 -21 -4 -25
3 -3 6 0 6 8 0 10 4 10 18 -1 15 -13 16 -12 4 3 -10 12 -10 18 -1 24 8 4 9 3
5 -4 -7 -11 6 -17 28 -13 5 1 3 -5 -4 -14 -11 -13 -10 -14 6 -8 10 3 23 11 27
17 6 7 7 4 3 -6 -3 -10 -1 -18 5 -18 6 0 8 -4 4 -9 -8 -13 33 -5 54 11 9 7 13
8 9 4 -4 -5 -2 -16 5 -24 10 -13 9 -14 -3 -7 -12 7 -13 6 -2 -6 7 -8 17 -15
23 -15 5 -1 10 -3 12 -4 8 -8 55 -5 50 3 -4 6 -1 7 7 2 7 -4 16 -2 21 6 6 10
8 8 6 -8 0 -12 -5 -19 -9 -17 -15 9 -8 -3 9 -17 11 -10 14 -10 9 -1 -4 7 -2
12 4 12 6 0 9 4 6 8 -3 5 1 9 9 9 8 0 14 -3 13 -6 -2 -20 5 -22 24 -5 13 12
18 13 13 4 -14 -23 -16 -50 -4 -50 5 0 7 5 4 10 -3 6 1 10 9 10 10 0 16 -9 17
-22 1 -22 1 -22 9 2 5 15 8 18 9 8 1 -11 7 -15 20 -11 10 3 22 0 25 -6 5 -7 1
-8 -11 -4 -10 3 -15 3 -11 -1 3 -4 14 -9 25 -11 10 -1 17 -8 15 -14 -1 -8 4
-7 18 1 11 7 16 14 10 16 -5 2 -10 9 -10 15 0 6 8 3 18 -6 16 -17 16 -19 -2
-33 -11 -8 -15 -14 -9 -14 7 0 15 5 19 11 4 8 9 7 16 -2 8 -11 9 -10 4 3 -3
10 0 20 6 24 7 5 8 2 3 -6 -6 -10 -4 -12 8 -7 9 3 19 1 23 -5 5 -7 2 -8 -6 -3
-9 5 -11 4 -6 -3 11 -18 26 -14 27 6 0 14 2 14 8 -3 5 -12 4 -23 -3 -28 -6 -4
3 -4 19 -1 28 7 29 6 15 -12 -11 -15 -11 -16 0 -6 18 15 34 16 24 0 -4 -7 -3
-8 4 -4 7 4 12 2 12 -5 0 -7 6 -4 14 6 14 19 15 19 34 2 19 -18 21 -18 32 0
10 16 10 15 5 -5 -5 -16 -3 -22 7 -20 8 2 12 -5 11 -17 -1 -19 -1 -19 11 -2
16 21 67 20 63 -2 -1 -7 4 -16 11 -18 6 -3 12 0 12 7 0 6 -6 8 -13 4 -6 -4 -8
-3 -4 1 12 14 37 14 37 0 0 -7 6 -18 13 -24 10 -8 14 -7 14 4 0 8 -5 11 -10 8
-6 -3 -7 -1 -3 6 4 6 4 18 -1 24 -4 7 -1 6 7 -3 8 -9 18 -17 22 -18 28 -9 37
-15 32 -23 -3 -5 2 -6 10 -3 9 3 13 11 9 17 -3 6 -1 7 6 3 6 -4 9 -11 6 -16
-3 -4 4 -10 15 -13 11 -3 23 0 27 5 3 6 1 8 -5 4 -6 -3 -13 -2 -16 3 -5 7 8 8
32 2 1 -1 -2 -10 -8 -21 -10 -19 -10 -20 9 -8 11 6 17 17 13 23 -3 5 1 4 10
-2 8 -7 19 -9 23 -5 5 4 5 1 1 -6 -4 -7 -11 -10 -15 -8 -4 3 -8 -1 -8 -9 0
-18 13 -20 20 -2 4 9 8 8 16 -3 7 -10 11 -11 11 -2 0 16 18 15 35 -2 7 -7 26
-13 42 -12 18 1 36 -8 49 -22 16 -17 21 -19 21 -8 0 9 -4 16 -8 16 -5 0 -13 9
-19 20 -7 14 -7 20 0 20 5 0 10 -7 10 -16 0 -8 4 -12 10 -9 6 3 10 1 10 -6 0
-8 4 -8 16 1 13 11 16 10 21 -8 3 -12 12 -22 20 -22 8 0 11 5 8 12 -4 7 0 5 8
-4 17 -21 28 -23 23 -6 -1 7 -1 10 1 5 3 -4 8 -5 13 -2 4 2 17 -4 29 -14 12
-11 30 -18 39 -16 9 2 19 4 22 4 3 1 -2 6 -10 11 -12 7 -10 9 7 7 16 -1 19 -5
12 -13 -7 -8 -6 -14 1 -19 6 -3 7 -12 3 -18 -4 -7 0 -6 10 2 14 11 17 11 17 0
0 -9 3 -10 8 -4 11 15 32 17 33 3 0 -7 4 -4 9 7 7 15 9 16 9 4 1 -9 9 -23 18
-30 14 -12 16 -12 8 0 -6 11 -4 13 10 7 14 -5 16 -4 7 7 -9 10 -8 14 3 14 13
0 20 -16 16 -39 0 -4 6 -5 14 -2 8 4 15 10 15 16 0 5 -4 7 -8 4 -5 -3 -9 1 -9
8 0 7 6 13 13 13 7 0 13 -3 12 -6 -2 -20 5 -29 30 -40 l27 -12 -25 22 c-14 11
-19 18 -12 14 7 -4 21 -1 30 7 15 11 16 11 4 -3 -10 -14 -10 -18 3 -23 9 -3
14 -10 11 -14 -3 -5 1 -9 9 -9 11 0 12 5 3 21 -10 18 -9 19 4 9 8 -7 19 -9 23
-5 5 4 5 1 0 -7 -6 -10 -2 -11 16 -6 21 7 22 6 10 -9 -12 -14 -12 -16 3 -10 9
3 16 11 16 18 0 7 3 7 8 -2 13 -20 50 -23 63 -4 10 16 10 16 5 0 -5 -18 -1
-20 29 -20 46 0 56 3 49 15 -4 6 2 4 13 -6 21 -18 22 -18 32 0 6 10 11 13 11
7 0 -5 -6 -16 -12 -23 -11 -11 -10 -13 4 -8 10 3 20 1 24 -5 4 -6 3 -8 -4 -4
-6 3 -13 2 -16 -2 -3 -5 6 -8 19 -8 14 1 24 6 23 11 -2 6 -6 9 -10 7 -5 -1 -8
2 -8 8 0 5 4 10 8 10 14 0 43 -36 35 -43 -3 -4 -1 -7 6 -7 6 0 10 10 7 23 -3
16 1 24 10 24 10 0 11 -4 2 -14 -8 -10 -7 -13 8 -10 11 1 24 6 30 9 6 4 11 1
11 -7 0 -7 -8 -12 -18 -10 -10 2 -21 0 -24 -4 -2 -5 10 -7 27 -6 18 2 34 8 36
14 5 16 19 13 19 -4 0 -8 -4 -12 -8 -9 -4 2 -11 -1 -15 -8 -4 -7 -4 -10 1 -6
4 4 15 2 23 -5 9 -7 13 -7 9 -1 -3 6 0 19 7 30 13 17 13 16 11 -8 -2 -20 1
-25 11 -21 8 3 22 -1 31 -8 13 -11 13 -8 -3 16 -14 22 -15 27 -3 18 9 -7 20
-9 24 -5 5 4 5 1 1 -5 -4 -8 -1 -13 9 -13 8 0 18 -7 21 -15 4 -8 11 -12 16 -9
6 4 5 10 -3 15 -10 6 -8 9 9 9 13 0 21 4 18 8 -2 4 4 8 14 8 11 0 17 -2 15 -5
-3 -2 0 -10 6 -18 8 -8 8 -13 1 -13 -6 0 -12 5 -14 12 -5 14 -28 1 -27 -15 0
-8 2 -8 6 1 4 10 9 9 24 -4 11 -10 19 -12 19 -6 0 7 7 12 16 12 9 0 12 -5 8
-12 -6 -10 -5 -10 7 -1 12 10 18 10 28 0 9 -9 14 -9 21 2 10 17 48 22 57 8 3
-6 1 -7 -5 -3 -7 4 -12 2 -12 -4 0 -7 8 -9 20 -5 16 5 19 3 14 -12 -5 -15 -4
-15 5 -3 7 11 5 20 -7 34 -16 18 -16 18 5 5 12 -7 27 -22 33 -34 9 -17 10 -16
5 9 l-6 30 21 -25 c12 -13 19 -18 15 -11 -3 6 -3 12 2 13 4 0 16 2 26 4 14 3
17 -1 12 -18 -4 -15 -3 -18 3 -9 5 7 23 14 40 14 18 1 32 5 32 10 0 5 -4 7 -9
3 -5 -3 -12 -1 -16 4 -3 6 3 8 15 6 13 -2 20 1 20 11 0 9 5 12 12 8 7 -4 8 -3
4 5 -6 8 -11 9 -21 1 -9 -8 -11 -4 -7 16 3 16 1 25 -5 21 -5 -3 -9 11 -9 33 0
31 3 37 13 28 11 -9 12 -3 7 28 -3 22 -9 46 -13 54 -12 24 -7 45 11 44 10 -1
15 5 13 15 -2 9 -4 22 -4 29 -1 7 -5 11 -10 8 -4 -3 -6 12 -4 34 3 28 1 40 -8
40 -7 0 -9 3 -6 6 4 4 13 1 21 -5 12 -10 13 -9 9 9 -4 16 -2 19 13 15 12 -4
11 -1 -3 6 -13 7 -23 16 -23 21 0 5 -6 6 -12 2 -10 -6 -10 -4 0 8 9 11 9 18 2
21 -6 3 -5 4 2 2 7 -1 12 -8 10 -14 -1 -6 3 -11 9 -11 7 0 8 7 4 17 -5 10 -8
26 -9 35 0 9 -3 16 -6 15 -4 -2 -11 9 -9 16 6 20 6 43 0 52 -11 15 -8 38 7 42
14 5 16 -13 2 -22 -6 -4 -8 -11 -4 -16 12 -19 21 2 19 44 -2 47 -11 70 -25 62
-4 -3 -7 3 -5 12 1 10 -2 23 -7 30 -6 8 -2 11 14 9 20 -2 24 2 23 25 0 16 -5
28 -10 26 -6 -1 -10 3 -10 8 0 6 10 10 22 9 12 0 19 4 16 9 -3 4 -11 6 -19 3
-10 -4 -14 3 -14 27 0 18 -5 38 -12 45 -9 9 -9 12 1 12 7 0 11 9 9 23 -2 12
-9 21 -17 19 -11 -2 -12 0 -3 11 7 8 9 17 5 20 -3 4 -1 7 5 7 18 0 14 31 -5
46 -17 13 -17 14 2 7 18 -6 19 -5 5 13 -14 18 -14 18 2 5 10 -7 16 -17 13 -21
-3 -5 -1 -11 4 -14 12 -8 8 37 -4 46 -12 9 -14 31 -3 38 4 3 1 17 -6 31 -12
23 -11 27 6 38 10 6 17 15 14 19 -2 4 2 15 9 25 11 15 13 16 19 2 8 -21 27
-19 20 3 -4 11 1 9 16 -8 21 -24 21 -24 10 -2 -11 21 -10 23 8 18 26 -9 53 21
31 35 -9 5 -10 9 -2 9 7 0 17 -8 22 -18 9 -14 10 -14 11 -1 0 8 -6 21 -12 29
-7 8 -2 6 11 -5 22 -18 24 -18 18 -2 -4 10 -3 16 3 12 11 -7 51 31 42 40 -4 3
1 3 11 -1 9 -3 14 -11 11 -18 -3 -6 4 0 15 14 11 14 21 21 21 16 0 -5 8 -2 18
7 10 10 21 14 25 11 3 -3 3 3 0 15 -3 13 -1 21 6 21 7 0 9 5 5 12 -4 7 -3 8 5
4 9 -6 9 -11 1 -21 -8 -10 -8 -15 1 -21 7 -4 9 -3 6 3 -4 6 6 23 20 39 15 16
26 33 25 38 -2 5 3 4 11 -2 14 -12 37 2 37 23 0 5 -7 1 -15 -9 -16 -21 -21
-10 -6 13 7 10 13 11 30 2 11 -7 22 -9 22 -6 5 19 4 31 -4 36 -5 3 -2 9 7 12
8 3 18 1 22 -5 5 -7 2 -8 -6 -3 -8 5 -11 4 -6 -3 4 -6 13 -9 21 -5 17 6 20 23
5 23 -5 0 -10 5 -10 11 0 8 4 8 14 0 10 -8 16 -9 21 -1 3 6 11 8 16 4 5 -3 7
-9 5 -13 -3 -4 0 -13 6 -21 8 -12 9 -11 4 4 -5 15 -2 17 14 13 11 -3 23 0 27
5 4 7 1 8 -7 3 -9 -5 -11 -4 -6 4 4 6 12 9 17 5 5 -3 7 -10 4 -15 -4 -5 1 -9
9 -9 8 0 18 5 22 12 5 7 3 8 -6 3 -9 -5 -11 -4 -6 4 6 9 11 9 22 0 7 -6 11
-15 8 -20 -3 -5 -1 -9 4 -9 6 0 13 7 16 16 9 22 7 31 -3 16 -7 -11 -9 -11 -14
1 -7 19 21 16 34 -4 7 -11 9 -11 9 0 0 8 6 11 16 7 13 -5 15 -2 11 14 -3 11 0
23 5 27 7 3 8 1 4 -5 -4 -7 -2 -12 4 -12 6 0 8 -5 4 -11 -5 -8 -1 -8 14 0 12
6 25 18 30 26 4 9 18 17 30 20 13 2 20 0 17 -4 -3 -5 2 -12 11 -15 10 -4 13
-2 8 6 -5 7 -2 9 8 5 9 -3 23 2 33 13 10 11 26 22 36 25 11 4 19 14 19 23 -1
16 -2 15 -11 0 -5 -10 -15 -18 -21 -18 -6 0 -3 9 7 20 13 14 21 17 31 9 9 -7
14 -6 20 2 4 8 3 9 -4 5 -7 -4 -12 -2 -12 3 0 6 5 11 11 11 5 0 8 4 4 9 -3 6
4 8 16 6 18 -4 20 -1 16 18 -6 22 -6 22 10 2 15 -20 15 -20 10 2 -3 12 -2 22
2 21 19 -2 31 3 26 12 -3 6 3 11 14 11 33 2 39 4 47 11 3 4 -3 6 -14 3 -12 -2
-23 3 -26 12 -4 11 -2 13 9 9 9 -3 15 0 15 9 0 7 4 17 10 20 6 4 7 -1 4 -12
-5 -15 -4 -15 4 -3 7 10 8 18 1 26 -7 9 -4 16 10 23 11 6 19 17 17 24 -1 6 -1
9 1 5 9 -17 24 -7 18 11 -3 11 -1 22 4 26 6 3 8 0 5 -8 -3 -8 -1 -17 3 -20 13
-8 11 57 -2 65 -6 5 -6 8 2 8 7 0 17 -8 23 -17 11 -17 11 -17 6 -1 -3 10 -1
20 4 23 6 4 10 1 10 -6 0 -7 3 -9 6 -6 4 4 1 13 -6 22 -11 14 -7 19 13 16 4 0
7 3 7 9 0 5 -7 10 -15 10 -8 0 -15 -4 -15 -9 0 -6 -9 -9 -20 -8 -17 1 -19 11
-2 13 4 0 15 4 25 9 15 6 16 10 5 16 -10 7 -10 9 0 9 16 0 16 42 0 59 -8 8 -2
7 13 -3 25 -15 25 -15 25 12 -1 16 4 26 11 25 7 -2 10 4 7 12 -4 8 -10 15 -16
15 -5 0 -6 -4 -3 -10 4 -6 -1 -7 -11 -3 -16 6 -16 7 1 19 10 7 21 11 26 9 4
-3 10 -1 13 4 3 5 -7 8 -24 7 -21 -1 -26 1 -20 9 6 7 5 17 -3 25 -6 8 -1 6 13
-5 14 -11 22 -16 18 -11 -4 5 -3 17 2 27 7 13 6 22 -6 34 -21 21 -10 32 13 14
16 -12 16 -11 0 8 -11 13 -26 19 -35 16 -14 -4 -15 -3 -2 5 8 6 18 8 22 6 4
-3 8 0 8 5 0 10 -14 15 -33 12 -5 -1 -6 3 -2 9 3 5 1 10 -6 10 -17 0 -5 11 15
14 9 1 15 6 14 12 -2 5 -7 8 -11 6 -13 -4 -3 32 13 46 8 8 9 11 3 7 -20 -9
-36 4 -24 19 8 9 7 13 -2 13 -7 0 -13 -11 -13 -23 0 -12 3 -21 6 -19 4 2 7 -2
7 -10 0 -10 -4 -12 -12 -5 -10 8 -13 58 -5 68 8 8 5 30 -7 54 -9 20 -18 25
-35 22 l-23 -5 23 12 c12 7 22 16 22 21 0 5 -9 4 -19 -1 -16 -9 -18 -8 -14 9
5 18 -4 24 -28 22 -3 -1 -6 6 -6 13 0 11 4 12 14 3 11 -8 12 -7 7 6 -3 9 -10
16 -15 16 -5 0 -9 5 -9 11 0 6 9 8 23 4 15 -4 18 -3 8 3 -7 5 -9 12 -5 14 5 3
3 3 -3 2 -18 -5 -16 6 5 23 9 8 11 11 3 7 -9 -4 -12 -2 -9 7 3 8 14 13 24 11
18 -2 18 -2 1 8 -9 6 -23 8 -30 4 -9 -6 -9 -4 -1 7 6 8 10 24 8 36 -2 12 1 25
6 28 5 3 7 0 4 -8 -3 -8 2 -17 12 -21 14 -5 15 -4 5 8 -9 11 -9 15 1 19 10 4
10 6 1 6 -20 1 -15 39 5 44 13 4 12 5 -5 6 -12 0 -24 -5 -26 -11 -4 -10 -6
-10 -6 0 -1 7 9 17 22 22 12 5 17 9 11 9 -17 1 -35 48 -19 48 7 0 11 -6 8 -13
-2 -6 0 -15 6 -19 7 -4 8 0 4 11 -5 13 -3 15 7 9 9 -5 11 -4 6 3 -15 24 -15
53 -1 59 19 7 19 20 0 20 -8 0 -12 -4 -9 -9 3 -4 -2 -5 -11 -1 -12 4 -13 8 -5
13 15 10 15 11 1 37 -9 19 -9 22 3 17 8 -3 13 -14 11 -24 -3 -13 1 -17 12 -13
12 5 12 7 1 14 -7 5 -9 9 -4 9 5 0 1 10 -10 22 -10 12 -13 18 -6 14 6 -4 12
-4 13 1 5 43 5 61 -2 57 -4 -2 -6 -13 -4 -24 2 -11 -1 -20 -7 -20 -5 0 -8 7
-4 15 3 8 -2 19 -12 24 -9 6 -12 11 -6 11 5 0 19 7 30 15 18 14 18 14 -3 10
-13 -2 -25 0 -27 4 -3 4 5 8 16 8 38 3 47 44 10 42 -14 0 -13 -2 3 -9 11 -5
18 -9 15 -10 -25 -7 -38 -6 -35 4 6 28 18 45 28 39 6 -3 7 -1 3 6 -6 9 -11 9
-22 0 -12 -10 -13 -9 -8 5 4 10 1 16 -7 16 -9 1 -8 4 4 11 13 8 15 14 7 23 -8
10 -5 12 14 9 13 -3 27 0 30 6 4 7 1 9 -7 5 -8 -3 -17 -2 -20 3 -3 5 6 10 21
11 15 1 33 10 40 20 7 9 18 16 23 14 6 -1 7 3 4 9 -5 8 -10 8 -18 0 -6 -6 -15
-11 -20 -11 -5 0 2 9 17 21 15 11 32 19 40 16 7 -3 19 -1 27 5 11 8 10 9 -3 4
-10 -3 -18 -1 -18 4 0 6 4 10 10 10 5 0 6 8 3 18 -6 15 -5 15 10 3 10 -8 20
-11 24 -7 3 3 1 6 -5 6 -7 0 -12 8 -12 18 0 14 2 15 10 2 8 -13 10 -12 10 3 0
12 4 16 13 11 8 -5 7 -2 -2 9 -8 10 -11 20 -7 24 3 3 6 1 6 -5 0 -7 5 -12 11
-12 5 0 7 5 4 10 -5 9 16 15 38 11 5 -1 6 3 2 9 -4 6 -15 8 -26 5 -16 -5 -15
-2 6 19 27 27 46 36 26 12 -8 -10 -9 -16 -1 -21 6 -4 9 -1 8 7 -2 7 2 12 8 11
8 -1 10 6 6 19 -4 16 -2 19 9 14 8 -4 6 -1 -4 7 -16 13 -16 15 -2 21 9 3 14 2
11 -3 -3 -5 1 -11 9 -14 10 -4 12 -1 8 10 -5 12 -3 14 8 8 11 -7 12 -6 2 7
-13 15 -8 28 9 28 5 0 6 -4 3 -10 -4 -6 1 -7 11 -3 11 4 13 8 6 11 -7 2 -9 9
-6 14 4 6 2 8 -4 4 -13 -8 -10 18 6 36 6 8 10 18 7 21 -3 4 -2 5 2 2 10 -8 13
-36 2 -30 -5 4 -6 -1 -3 -10 9 -23 19 -6 23 38 1 5 5 5 11 2 6 -3 7 1 3 10 -5
13 -7 14 -14 3 -5 -7 -9 -8 -9 -2 0 6 9 19 19 28 11 10 17 25 14 34 -4 14 -3
15 6 2 7 -11 6 -19 -6 -32 -9 -10 -12 -18 -7 -18 12 0 40 50 39 70 0 8 -4 20
-7 26 -4 6 -1 11 7 11 8 0 12 -4 9 -8 -2 -4 -1 -10 4 -13 4 -2 9 6 10 19 1 19
-2 23 -16 18 -9 -3 -5 4 10 16 15 12 27 25 27 29 -3 19 2 32 12 32 8 0 8 -4 0
-14 -9 -11 -9 -16 0 -22 7 -4 9 -3 5 4 -3 5 0 12 6 15 10 3 9 8 -2 22 -9 11
-10 16 -2 11 6 -4 12 -3 12 1 0 5 -6 15 -12 23 -7 8 -4 7 7 -2 20 -17 21 -16
23 9 1 14 -1 31 -5 37 -5 7 1 3 11 -9 12 -12 17 -14 14 -5 -6 18 10 53 21 46
9 -6 8 31 -1 40 -4 3 -4 13 -1 22 5 11 3 13 -8 7 -8 -5 -11 -4 -6 0 10 11 39
16 32 6 -2 -4 2 -8 10 -8 10 0 12 4 5 12 -5 7 -6 16 -2 20 4 5 1 5 -5 1 -8 -4
-13 -1 -13 8 0 21 17 20 29 -1 6 -10 11 -13 11 -6 0 6 -6 18 -12 25 -17 17
-21 38 -8 38 6 0 10 -6 10 -12 0 -9 3 -8 10 2 6 9 5 17 -2 21 -20 12 -18 37 2
32 10 -3 21 1 25 8 5 8 4 10 -3 5 -7 -4 -12 -2 -12 4 0 6 -6 8 -12 4 -7 -4 -5
2 5 13 9 11 14 22 11 26 -3 3 -2 12 2 19 5 7 9 17 9 22 0 5 6 11 13 14 6 2 12
-1 12 -7 0 -6 5 -11 11 -11 8 0 9 4 0 13 -6 8 -8 17 -4 21 4 4 0 4 -10 0 -10
-3 -17 -1 -17 6 0 6 -5 8 -12 4 -7 -4 -8 -3 -4 4 4 6 13 9 21 6 7 -3 18 4 25
15 6 12 7 20 3 19 -4 -2 -8 2 -8 7 0 6 6 9 13 7 8 -2 11 1 7 8 -4 6 -3 16 2
23 13 17 10 36 -7 48 -12 9 -12 10 4 5 13 -5 17 -2 13 9 -4 8 -2 17 3 20 6 4
10 1 10 -5 0 -6 5 -8 11 -4 8 5 6 10 -5 16 -9 5 -14 14 -11 19 4 5 10 7 15 4
5 -3 11 -2 14 3 2 4 -4 9 -15 9 -10 1 -19 -2 -19 -8 0 -5 -5 -9 -12 -9 -6 0
-4 8 7 20 9 10 22 18 28 17 6 -1 12 8 13 20 1 12 -2 20 -7 17 -4 -2 -6 -12 -3
-22 5 -13 4 -14 -4 -3 -7 9 -12 10 -16 2 -9 -14 -26 -14 -26 -1 0 5 6 9 13 7
6 -1 11 4 9 11 -1 8 2 11 8 7 5 -3 10 -1 10 4 0 6 8 11 18 12 14 0 14 2 -3 8
-11 5 -24 6 -30 3 -5 -3 -4 2 3 10 8 9 19 15 27 12 7 -3 16 0 20 6 3 6 3 10
-2 9 -19 -3 -33 2 -33 12 0 6 6 9 13 6 7 -3 13 3 14 14 1 10 -1 18 -5 18 -19
-3 -23 2 -12 16 8 10 9 15 2 15 -6 0 -2 16 9 35 12 20 26 32 32 28 7 -3 8 -2
4 3 -9 9 -11 10 -44 13 -16 2 -15 3 2 10 13 5 20 17 20 36 1 16 6 30 12 32 6
2 10 -6 9 -21 0 -13 -4 -22 -7 -20 -3 1 -6 -3 -6 -11 0 -8 6 -16 13 -19 9 -3
11 1 7 11 -5 12 -3 14 7 8 10 -6 11 -4 4 6 -12 19 -14 72 -3 85 5 7 3 11 -6
11 -8 0 -11 -5 -8 -10 3 -6 1 -7 -6 -3 -14 9 -5 26 15 26 10 0 13 8 9 30 -4
25 -2 28 12 23 15 -6 16 -5 3 9 -8 9 -18 14 -21 12 -4 -2 -9 2 -12 10 -3 8 1
17 9 20 10 4 12 2 8 -6 -4 -6 -3 -8 4 -4 5 3 12 0 15 -6 3 -7 4 -3 4 9 -1 12
-5 19 -11 16 -5 -4 -7 3 -4 15 4 12 2 25 -3 28 -5 3 -9 2 -8 -3 4 -22 -3 -33
-18 -33 -17 1 -17 1 0 11 9 6 15 14 12 19 -3 5 0 12 6 16 8 4 4 12 -12 21
l-24 14 25 -7 c23 -6 24 -6 10 12 -14 17 -13 18 1 7 9 -7 20 -9 25 -5 4 4 2
-1 -5 -10 -9 -12 -10 -18 -2 -18 10 0 15 13 12 33 0 4 4 7 9 7 6 0 10 5 10 11
0 8 -4 8 -14 0 -7 -6 -21 -8 -31 -5 -11 5 -13 9 -5 14 6 4 12 16 13 28 1 13 5
18 10 13 5 -5 4 -19 -3 -32 -10 -21 -10 -22 3 -7 8 10 16 16 18 13 3 -2 5 4 5
15 0 10 -4 16 -8 14 -13 -8 -9 11 5 25 9 10 9 12 0 7 -15 -8 -13 45 2 56 6 5
5 8 -3 8 -7 0 -11 4 -7 9 3 5 1 12 -5 16 -6 4 -8 11 -5 16 4 5 2 9 -3 9 -6 0
-12 6 -15 13 -3 8 1 14 8 14 8 0 13 -5 12 -10 -1 -5 5 -12 13 -14 9 -3 11 -1
5 4 -9 7 -13 47 -5 56 1 1 3 10 5 20 2 13 0 15 -8 9 -19 -14 -49 -23 -42 -12
3 6 12 10 20 10 15 0 23 17 20 48 -1 17 2 21 14 17 11 -3 11 -1 -3 9 -13 11
-17 22 -12 40 3 15 3 26 -2 26 -5 0 -14 12 -21 28 l-12 27 21 -25 21 -25 -19
40 c-11 22 -21 45 -22 50 -1 6 -9 9 -18 7 -14 -2 -14 -1 2 9 14 9 15 13 5 19
-7 5 -14 16 -15 24 -1 9 2 14 7 10 14 -9 10 26 -5 41 -7 8 -15 12 -17 10 -2
-2 -5 8 -5 21 -1 15 2 21 10 17 6 -4 5 1 -3 10 -7 9 -19 17 -25 17 -6 0 -4 -5
4 -10 9 -6 10 -10 3 -10 -6 0 -19 10 -27 22 -10 13 -16 17 -16 9 0 -8 -3 -12
-6 -8 -3 3 -3 11 2 18 5 9 11 7 21 -6 7 -11 13 -14 13 -8 0 7 -5 15 -11 18 -6
4 -8 14 -5 22 3 8 2 11 -3 8 -5 -3 -17 5 -27 17 -11 15 -14 17 -11 6 9 -26
-19 -23 -37 4 -8 12 -13 25 -10 30 3 4 0 8 -6 8 -7 0 -10 -7 -7 -14 4 -10 1
-13 -9 -9 -17 6 -18 15 -1 33 6 8 2 6 -10 -4 -21 -17 -27 -15 -24 6 0 3 -12 4
-27 2 -15 -3 -33 -5 -39 -6 -7 -1 -13 -6 -13 -11 0 -6 -3 -7 -6 -4 -10 10 17
38 30 30 6 -3 5 0 -2 8 -9 10 -15 10 -20 3 -9 -14 -45 -14 -55 0 -6 7 -7 4 -3
-6 5 -17 -4 -22 -33 -19 -7 2 -10 -2 -6 -8 4 -7 0 -8 -10 -4 -13 5 -14 7 -3
14 10 7 11 9 0 9 -7 0 -10 5 -6 12 4 7 3 8 -5 4 -6 -4 -9 -11 -6 -16 3 -5 -10
-7 -29 -5 -30 4 -34 2 -30 -13 5 -16 5 -16 -9 0 -16 20 -28 14 -20 -10 3 -10
-4 -5 -16 11 -12 15 -28 27 -34 27 -7 0 -4 -5 6 -11 9 -5 17 -15 17 -20 0 -6
-4 -8 -9 -5 -5 4 -11 3 -14 -1 -2 -5 -2 -2 -1 5 5 18 -14 15 -25 -5 -6 -10
-11 -13 -11 -7 0 7 -10 14 -22 17 -13 2 -32 8 -43 12 -11 4 -5 -2 13 -14 17
-11 32 -24 32 -27 0 -4 -6 -1 -14 5 -7 6 -22 9 -32 5 -12 -4 -15 -3 -7 3 8 6
5 11 -11 19 -20 9 -23 8 -19 -6 3 -10 0 -21 -6 -24 -7 -4 -9 -1 -5 8 3 8 -3
19 -15 25 -28 15 -38 14 -16 -2 11 -9 14 -16 7 -21 -6 -3 -13 -2 -17 4 -9 15
-28 12 -19 -2 6 -10 4 -10 -7 0 -16 15 -43 16 -34 1 4 -6 -2 -5 -13 2 -12 7
-18 17 -16 21 3 4 1 8 -4 8 -6 0 -13 -7 -16 -16 -6 -14 -9 -15 -29 -1 -18 12
-26 12 -40 2 -9 -6 -13 -16 -9 -21 4 -4 0 -3 -9 4 -11 8 -19 8 -26 1 -8 -8
-13 -7 -18 2 -6 8 -4 10 5 4 8 -5 11 -4 6 3 -4 7 1 10 14 7 11 -2 22 0 24 4 7
10 -35 8 -51 -2 -7 -5 -17 -6 -22 -3 -5 4 -12 0 -14 -6 -4 -10 -6 -10 -6 0 -1
6 -5 12 -11 12 -5 0 -6 -8 -3 -17 6 -15 5 -16 -9 -3 -9 8 -14 18 -11 22 2 4
-3 5 -11 2 -9 -3 -14 -10 -11 -14 3 -5 0 -12 -6 -16 -8 -4 -9 -3 -5 4 4 7 2
12 -4 12 -6 0 -9 4 -6 8 3 5 -1 9 -9 9 -18 0 -19 -9 -4 -24 8 -8 8 -13 0 -18
-6 -3 -10 -1 -9 5 2 7 -7 14 -20 16 -17 3 -21 0 -16 -8 5 -9 2 -9 -9 1 -18 14
-24 26 -8 17 5 -3 15 2 22 12 12 15 12 16 -2 5 -12 -10 -18 -10 -29 0 -10 9
-11 9 -6 0 4 -7 2 -13 -5 -13 -8 0 -7 -5 2 -17 13 -16 12 -17 -4 -4 -10 8 -16
20 -13 27 3 7 0 16 -6 20 -7 4 -8 3 -4 -4 5 -8 -1 -12 -18 -12 -15 0 -26 7
-29 18 -4 16 -5 16 -6 0 -1 -19 32 -41 44 -30 5 4 5 1 1 -6 -9 -15 -33 -3 -59
28 -10 11 -23 18 -29 14 -8 -5 -5 -10 8 -15 13 -5 14 -8 4 -8 -8 0 -22 4 -30
9 -9 6 -10 10 -3 10 6 0 11 9 10 20 -1 10 -3 17 -6 14 -2 -2 -13 8 -23 23 -10
16 -18 23 -18 16 0 -6 -9 -11 -19 -10 -11 0 -17 5 -15 9 3 5 9 6 13 4 4 -3 8
1 8 10 0 9 -7 13 -21 9 -12 -3 -15 -2 -8 1 6 3 12 12 12 19 0 7 3 15 8 18 4 2
2 3 -4 1 -7 -1 -21 4 -33 13 -20 14 -21 17 -7 38 14 21 13 23 -9 35 -13 7 -31
10 -40 6 -9 -3 -13 -2 -10 4 3 6 15 10 26 10 10 0 19 5 19 11 0 5 -4 8 -8 5
-5 -3 -16 4 -25 15 -10 11 -23 17 -29 13 -7 -4 -8 -3 -4 4 4 7 2 12 -5 12 -7
0 -9 3 -6 6 4 4 13 1 21 -5 11 -9 16 -9 22 1 4 7 4 10 0 6 -5 -4 -18 2 -29 13
-12 11 -23 15 -25 9 -2 -5 -8 -10 -13 -10 -5 0 -4 9 3 19 11 18 13 18 24 3 7
-9 16 -14 20 -9 4 4 2 7 -5 7 -7 0 -9 5 -6 10 6 10 -8 14 -35 10 -12 -2 -12 2
3 17 14 16 14 20 2 20 -8 0 -12 -4 -9 -9 3 -4 0 -8 -7 -8 -6 0 -9 8 -6 20 3
11 1 23 -5 26 -5 3 -7 12 -5 19 4 8 -3 11 -19 9 -24 -2 -32 10 -14 21 6 3 10
12 9 18 0 9 -2 9 -6 0 -6 -16 -33 -17 -33 -2 0 5 5 7 12 3 7 -4 8 -3 4 5 -6 9
-11 9 -21 1 -11 -9 -12 -7 -8 9 3 13 11 18 21 14 14 -4 15 -3 2 5 -10 8 -19 7
-29 -1 -12 -9 -13 -9 -7 1 4 6 2 12 -3 12 -6 0 -11 5 -11 11 0 5 4 8 8 5 5 -3
9 1 9 9 0 8 -3 13 -6 12 -3 -1 -18 10 -32 23 -42 41 -67 59 -73 53 -3 -4 -6 1
-6 11 0 9 4 14 10 11 6 -4 7 1 3 11 -4 11 -8 13 -11 6 -2 -7 -13 -17 -25 -23
-21 -10 -21 -10 -3 5 11 9 16 16 12 16 -5 0 -2 8 5 18 11 14 10 13 -9 -2 -22
-19 -22 -19 -22 4 0 16 -4 20 -16 16 -12 -5 -14 -1 -8 16 6 20 5 21 -10 9 -9
-8 -19 -11 -23 -7 -3 3 -1 6 5 6 7 0 12 5 12 11 0 5 -4 8 -9 5 -5 -3 -12 1
-15 10 -3 9 -11 12 -18 8 -7 -4 -5 1 4 12 17 19 16 20 -9 22 -32 2 -34 4 -36
30 -1 12 -7 19 -17 17 -8 -1 -24 1 -35 6 -19 7 -19 8 2 8 12 1 25 5 28 11 4 6
-4 9 -17 7 -15 -1 -22 3 -20 11 1 8 -2 11 -8 7 -6 -3 -7 -11 -4 -17 4 -7 2 -8
-5 -4 -6 4 -9 16 -6 27 4 11 2 19 -5 19 -6 0 -8 -5 -4 -11 4 -8 0 -8 -15 0
-11 7 -21 16 -21 21 0 6 -5 10 -11 10 -5 0 -7 -5 -3 -12 4 -6 3 -8 -3 -5 -6 4
-9 18 -8 32 2 14 -1 22 -6 19 -6 -3 -16 -2 -22 3 -7 4 -4 0 6 -9 11 -10 15
-18 10 -18 -6 0 -18 9 -27 19 -17 18 -17 20 1 31 17 11 17 11 -1 6 -10 -4 -24
-1 -32 4 -7 6 -25 13 -40 14 -17 2 -30 11 -35 25 -11 28 -1 27 11 -1 9 -23 9
-23 9 -2 1 25 -21 38 -38 21 -6 -6 -11 -7 -11 -1 0 5 6 16 13 23 10 10 8 11
-7 5 -13 -5 -17 -4 -12 4 4 7 -2 9 -20 6 -23 -4 -25 -2 -19 18 5 18 4 20 -4 8
-7 -10 -11 -11 -11 -2 0 6 -9 12 -20 12 -11 0 -20 -5 -20 -12 0 -6 -3 -9 -6
-6 -3 4 0 16 6 28 11 21 11 21 -13 6 -24 -16 -39 -13 -31 7 2 7 -5 23 -16 37
-14 19 -22 22 -30 14 -9 -9 -9 -14 1 -19 8 -5 10 -4 5 3 -4 7 -2 12 3 12 13 0
15 -17 3 -24 -5 -3 -18 4 -30 14 -12 11 -26 20 -32 20 -9 0 -15 23 -10 45 1 6
-11 -1 -26 -15 l-27 -25 13 25 13 24 -29 -18 -29 -19 18 20 c18 20 18 21 0 19
-11 0 -17 5 -15 13 3 12 1 12 -15 0 -10 -8 -22 -18 -26 -24 -5 -5 -5 1 -2 13
6 21 4 23 -13 18 -12 -4 -24 -2 -28 5 -4 8 -3 9 4 5 7 -4 20 -3 29 3 15 8 14
10 -7 7 -14 -1 -30 -5 -36 -8 -12 -8 -46 17 -36 27 4 5 0 4 -8 -1 -24 -14 -38
-13 -51 2 -8 10 -8 14 0 14 6 0 11 -4 11 -8 0 -5 7 -9 15 -9 10 0 12 4 5 12
-5 7 -7 15 -4 18 4 4 -6 3 -22 -1 -38 -11 -67 -4 -60 14 3 7 2 13 -2 13 -28
-5 -35 2 -16 17 18 14 18 14 -5 3 -24 -11 -24 -12 -5 -26 18 -14 18 -15 -6 -8
-23 7 -24 7 -10 -11 14 -18 14 -18 -8 0 -23 20 -30 32 -12 21 6 -3 10 1 10 9
0 8 -5 18 -12 22 -7 4 -8 3 -4 -4 7 -11 -15 -18 -39 -12 -5 1 -15 3 -22 3 -7
0 -10 4 -7 8 5 9 -36 25 -51 20 -28 -8 -47 -10 -41 -3 4 4 13 7 18 7 6 0 13 7
15 15 3 9 1 11 -4 5 -7 -9 -17 -12 -58 -18 -5 -1 -13 -6 -17 -12 -4 -5 -6 5
-3 23 2 18 0 30 -5 27 -4 -3 -11 1 -13 7 -4 10 -6 10 -6 0 -1 -8 -6 -10 -13
-6 -8 4 -10 3 -5 -2 5 -5 13 -9 18 -9 5 0 9 -3 9 -7 0 -5 0 -10 0 -13 0 -3
-10 1 -23 10 -13 8 -27 12 -30 8 -4 -3 -7 -1 -7 5 0 6 -7 9 -17 5 -12 -5 -14
-3 -8 8 6 11 5 12 -6 2 -20 -20 -31 -15 -19 7 10 19 10 20 -9 8 -11 -6 -18
-15 -16 -19 3 -3 -8 -4 -23 -2 -15 2 -33 5 -39 5 -10 1 -10 5 -2 15 10 11 14
10 25 -4 7 -10 14 -13 14 -6 0 13 -17 26 -38 29 -6 1 -10 -1 -7 -6 3 -4 -3
-11 -13 -15 -31 -14 -41 -13 -35 2 5 12 7 12 14 1 5 -7 9 -11 10 -8 0 3 2 15
5 28 l4 23 -22 -21 c-25 -23 -47 -27 -29 -6 9 11 9 16 0 22 -8 4 -9 3 -5 -4 8
-13 -6 -17 -18 -5 -10 11 -37 12 -30 2 3 -5 0 -9 -6 -9 -6 0 -9 -4 -6 -8 3 -5
-1 -9 -9 -9 -8 0 -14 3 -13 6 2 20 -5 32 -24 41 -19 9 -21 9 -8 -2 17 -15 26
-43 10 -33 -6 4 -19 1 -28 -6 -14 -11 -15 -11 -4 1 16 18 15 27 -2 33 -10 4
-13 1 -9 -9 3 -7 0 -14 -6 -14 -6 0 -11 6 -11 13 0 8 -4 7 -10 -3 -5 -8 -10
-10 -10 -4 0 6 -10 11 -22 10 -16 -1 -23 4 -22 16 1 9 -4 14 -11 12 -7 -3 -11
-15 -8 -27 3 -15 -3 -10 -16 13 -11 19 -20 30 -21 24 0 -7 -21 -11 -57 -10
-32 1 -64 -2 -71 -7 -9 -7 -11 -5 -6 8 6 14 4 16 -7 9 -19 -12 -92 -12 -101 1
-5 6 -8 6 -8 -2 0 -9 -7 -10 -24 -3 -13 5 -27 6 -30 3 -9 -9 -49 -10 -67 -2
-8 4 -21 4 -29 -1 -9 -5 -19 -5 -27 2 -9 7 -13 7 -13 -1 0 -13 -42 -10 -52 4
-5 7 -8 6 -8 -1 0 -6 -21 -9 -52 -7 -40 2 -56 -2 -67 -15 -12 -15 -13 -15 -8
0 6 17 -18 34 -27 19 -6 -10 -107 -8 -124 3 -6 4 -13 4 -14 -1z m35 -16 c4 3
7 2 7 -4 0 -6 -8 -14 -17 -17 -10 -4 -14 -4 -10 0 4 4 1 14 -6 23 -10 14 -10
14 4 4 9 -7 19 -10 22 -6z m57 -4 c0 -1 -8 -7 -18 -12 -13 -7 -19 -6 -19 2 0
7 9 13 19 13 10 0 18 -1 18 -3z m120 3 c0 -3 -4 -8 -10 -11 -5 -3 -10 -1 -10
4 0 6 5 11 10 11 6 0 10 -2 10 -4z m585 -5 c-3 -2 0 -9 5 -16 7 -8 5 -12 -5
-12 -8 0 -12 4 -9 9 5 7 -10 12 -29 9 -5 -1 -6 2 -3 7 2 4 14 8 25 8 11 0 18
-2 16 -5z m-890 -31 c13 -6 15 -9 5 -9 -8 0 -22 4 -30 9 -18 12 -2 12 25 0z
m1146 -13 c-13 -13 -26 -3 -16 12 3 6 11 8 17 5 6 -4 6 -10 -1 -17z m-171 8
c0 -7 -30 -13 -34 -7 -3 4 4 9 15 9 10 1 19 0 19 -2z m-1413 -107 c-3 -8 -6
-5 -6 6 -1 11 2 17 5 13 3 -3 4 -12 1 -19z m2012 -1 c0 -9 -2 -8 -6 1 -2 6
-10 9 -15 6 -7 -4 -8 -2 -4 5 9 13 26 5 25 -12z m-2303 -79 c4 -6 3 -8 -3 -5
-6 4 -13 0 -17 -8 -6 -17 -26 -20 -26 -4 0 5 4 8 9 5 5 -3 11 1 15 9 7 18 12
19 22 3z m2709 -58 c3 -5 1 -10 -4 -10 -6 0 -11 5 -11 10 0 6 2 10 4 10 3 0 8
-4 11 -10z m180 -90 c3 -5 1 -10 -4 -10 -6 0 -11 5 -11 10 0 6 2 10 4 10 3 0
8 -4 11 -10z m88 -64 c4 -10 1 -13 -8 -9 -8 3 -12 9 -9 14 7 12 11 11 17 -5z
m57 -37 c0 -5 -4 -9 -8 -9 -5 0 -9 7 -9 15 0 8 4 12 9 9 4 -3 8 -9 8 -15z
m120 -90 c0 -6 -4 -7 -10 -4 -5 3 -10 11 -10 16 0 6 5 7 10 4 6 -3 10 -11 10
-16z m203 -175 c-4 -12 -8 -13 -14 -3 -9 15 -2 32 11 24 5 -3 6 -13 3 -21z
m47 -34 c-8 -5 -19 -10 -25 -10 -5 0 -3 5 5 10 8 5 20 10 25 10 6 0 3 -5 -5
-10z m-4432 -75 c-3 -3 -9 2 -12 12 -6 14 -5 15 5 6 7 -7 10 -15 7 -18z m-92
-71 c-9 -8 -14 -19 -11 -24 3 -5 1 -11 -4 -15 -6 -3 -8 3 -6 15 5 27 14 40 26
40 6 0 3 -7 -5 -16z m4724 -55 c17 -17 28 -34 24 -38 -4 -3 -9 0 -11 7 -4 10
-8 10 -21 0 -13 -12 -14 -10 -3 10 8 15 8 22 1 22 -6 0 -18 7 -26 15 -9 8 -11
15 -5 15 5 0 24 -14 41 -31z m131 -176 c12 -16 12 -17 -2 -6 -9 7 -19 10 -22
6 -4 -3 -7 -1 -7 5 0 17 16 15 31 -5z m94 -163 c3 -5 1 -10 -4 -10 -6 0 -11 5
-11 10 0 6 2 10 4 10 3 0 8 -4 11 -10z m-5315 -24 c0 -3 -4 -8 -10 -11 -5 -3
-10 -1 -10 4 0 6 5 11 10 11 6 0 10 -2 10 -4z m5356 -27 c3 -6 1 -16 -6 -22
-10 -9 -11 -9 -6 0 3 6 -2 16 -11 22 -16 9 -16 10 -1 11 9 0 20 -5 24 -11z
m-5432 -28 c3 -4 -7 -19 -22 -32 l-27 -24 23 26 c12 14 19 29 15 32 -3 4 -4 7
0 7 3 0 8 -4 11 -9z m5529 -147 c14 -17 14 -21 2 -21 -8 0 -12 4 -9 9 3 4 -2
11 -10 14 -9 3 -13 10 -10 16 3 5 7 8 8 6 0 -2 9 -12 19 -24z m1034 -78 c-8
-8 -17 -12 -21 -9 -3 3 2 12 12 19 22 16 29 9 9 -10z m-572 -14 c-8 -8 -25 10
-19 20 4 6 9 5 15 -3 4 -7 6 -15 4 -17z m469 20 c2 -4 -4 -8 -14 -8 -10 0 -16
4 -14 8 3 4 9 8 14 8 5 0 11 -4 14 -8z m196 -7 c0 -8 -4 -15 -9 -15 -13 0 -22
16 -14 24 11 11 23 6 23 -9z m-605 -5 c3 -5 1 -10 -4 -10 -6 0 -11 5 -11 10 0
6 2 10 4 10 3 0 8 -4 11 -10z m749 -71 c-3 -5 -10 -7 -15 -3 -5 3 -7 10 -3 15
3 5 10 7 15 3 5 -3 7 -10 3 -15z m-7060 -95 c19 -7 22 -25 4 -21 -7 1 -12 -4
-10 -11 1 -8 -2 -11 -8 -7 -8 5 -8 11 0 20 8 10 7 14 -2 18 -7 3 -10 6 -6 6 3
1 13 -2 22 -5z m-38 -106 c4 -7 4 -10 -1 -6 -4 4 -14 0 -22 -10 -13 -15 -13
-15 -3 6 12 25 16 27 26 10z m7205 -131 c-10 -9 -11 -8 -5 6 3 10 9 15 12 12
3 -3 0 -11 -7 -18z m20 -15 c-7 -13 -6 -23 2 -32 10 -12 9 -12 -5 -1 -14 10
-15 18 -7 32 5 10 12 19 15 19 2 0 0 -8 -5 -18z m9 -63 c0 -3 -7 -6 -15 -6 -8
0 -13 3 -10 5 3 3 -1 12 -8 20 -11 13 -9 14 11 1 12 -8 22 -16 22 -20z m-3
-25 c-3 -3 -12 -4 -19 -1 -8 3 -5 6 6 6 11 1 17 -2 13 -5z m8 -44 c-3 -5 -12
-10 -18 -10 -7 0 -6 4 3 10 19 12 23 12 15 0z m-7408 -94 c0 -7 -5 -13 -12
-13 -6 0 -11 8 -11 18 0 9 5 15 11 12 7 -2 12 -10 12 -17z m7400 -23 c0 -7 -4
-13 -9 -13 -4 0 -8 5 -8 11 0 5 -5 7 -12 3 -6 -4 -8 -3 -5 3 9 14 34 12 34 -4z
m0 -49 c-3 -3 -12 -4 -19 -1 -8 3 -5 6 6 6 11 1 17 -2 13 -5z m3 -30 c0 -2 -7
-4 -15 -4 -8 0 -15 4 -15 10 0 5 7 7 15 4 8 -4 15 -8 15 -10z m-7504 -180 c1
-9 0 -13 -4 -10 -3 4 -7 14 -8 22 -1 9 0 13 4 10 3 -4 7 -14 8 -22z m7469 -92
c3 -16 0 -19 -13 -15 -9 4 -11 8 -5 10 7 3 9 12 6 21 -3 9 -3 14 1 11 4 -4 8
-16 11 -27z m-7495 -26 c0 -2 -7 -7 -16 -10 -8 -3 -12 -2 -9 4 6 10 25 14 25
6z m7468 -51 c-3 -3 -9 2 -12 12 -6 14 -5 15 5 6 7 -7 10 -15 7 -18z m-7501
-110 c0 -8 -4 -12 -9 -9 -4 3 -8 9 -8 15 0 5 4 9 8 9 5 0 9 -7 9 -15z m-49
-269 c-7 -8 -15 -12 -17 -11 -5 6 10 25 20 25 5 0 4 -6 -3 -14z m9 -32 c-3 -3
-12 -4 -19 -1 -8 3 -5 6 6 6 11 1 17 -2 13 -5z m7473 -79 c0 -2 -6 -8 -13 -14
-10 -8 -14 -7 -14 2 0 8 6 14 14 14 7 0 13 -1 13 -2z m-7513 -240 c0 -8 -4
-12 -9 -9 -5 3 -6 10 -3 15 9 13 12 11 12 -6z m0 -60 c0 -8 -4 -12 -9 -9 -5 3
-6 10 -3 15 9 13 12 11 12 -6z m7373 -134 c-14 -26 -29 -35 -26 -15 1 8 9 20
17 25 20 12 21 11 9 -10z m-7355 -230 c3 -5 2 -12 -3 -15 -5 -3 -9 1 -9 9 0
17 3 19 12 6z m17 -75 c7 4 8 2 4 -5 -9 -13 -26 -5 -25 12 0 9 2 8 6 -1 2 -6
10 -9 15 -6z m28 -236 c0 -5 -2 -10 -4 -10 -3 0 -8 5 -11 10 -3 6 -1 10 4 10
6 0 11 -4 11 -10z m6874 -118 c3 -5 -1 -9 -9 -9 -8 0 -12 4 -9 9 3 4 7 8 9 8
2 0 6 -4 9 -8z m-54 -72 c8 -5 11 -10 5 -10 -5 0 -17 5 -25 10 -8 5 -10 10 -5
10 6 0 17 -5 25 -10z m-6765 -28 c-3 -3 -11 0 -18 7 -9 10 -8 11 6 5 10 -3 15
-9 12 -12z m5 -18 c0 -8 -19 -13 -24 -6 -3 5 1 9 9 9 8 0 15 -2 15 -3z m5 -24
c-3 -5 -12 -10 -18 -10 -7 0 -6 4 3 10 19 12 23 12 15 0z m30 -60 c3 -5 1 -10
-4 -10 -6 0 -11 5 -11 10 0 6 2 10 4 10 3 0 8 -4 11 -10z m2 -90 c-1 -11 -5
-20 -9 -20 -10 0 -10 4 -2 24 8 22 13 20 11 -4z m40 -112 c2 -17 0 -19 -7 -8
-5 8 -6 18 -4 22 8 12 10 10 11 -14z m6626 -63 c4 -8 1 -17 -6 -21 -7 -4 -9
-4 -5 1 4 4 3 14 -3 22 -7 8 -8 13 -1 13 5 0 12 -7 15 -15z m-6533 -139 c0 -2
-7 -7 -16 -10 -8 -3 -12 -2 -9 4 6 10 25 14 25 6z m64 -163 c4 -9 1 -21 -5
-27 -9 -8 -10 -8 -5 2 4 7 2 19 -4 27 -7 9 -8 15 -2 15 5 0 13 -8 16 -17z m36
-73 c0 -5 -5 -10 -11 -10 -5 0 -7 5 -4 10 3 6 8 10 11 10 2 0 4 -4 4 -10z
m6475 -102 c3 -16 2 -19 -7 -10 -6 6 -13 24 -14 39 -2 23 -1 25 7 10 6 -9 12
-27 14 -39z m-6285 -240 c0 -6 -6 -5 -15 2 -8 7 -15 14 -15 16 0 2 7 1 15 -2
8 -4 15 -11 15 -16z m6340 -13 c0 -12 -19 -12 -23 0 -4 9 -1 12 9 8 7 -3 14
-7 14 -8z m-23 -120 c0 -8 -4 -15 -9 -15 -10 0 -11 14 -1 23 9 10 10 9 10 -8z
m-6153 -76 c-3 -5 -10 -7 -15 -3 -5 3 -7 10 -3 15 3 5 10 7 15 3 5 -3 7 -10 3
-15z m6076 -113 c0 -2 -8 -10 -17 -17 -16 -13 -17 -12 -4 4 13 16 21 21 21 13z
m-5735 -256 c-3 -5 -3 -10 2 -10 4 0 17 -13 28 -28 19 -27 19 -27 0 -12 -37
28 -52 60 -29 60 3 0 2 -4 -1 -10z m5457 -81 c-9 -11 -18 -15 -20 -9 -2 5 -8
8 -12 5 -5 -3 -11 -1 -15 4 -3 6 4 8 15 6 12 -2 23 2 27 10 3 8 9 13 14 10 4
-3 1 -15 -9 -26z m-5365 6 c0 -17 -13 -20 -21 -6 -4 5 0 12 6 14 7 3 13 6 14
6 0 1 1 -6 1 -14z m5240 -47 c-3 -8 -6 -5 -6 6 -1 11 2 17 5 13 3 -3 4 -12 1
-19z m-482 -216 c-10 -9 -15 -12 -11 -5 3 6 3 13 -1 16 -5 2 -2 2 5 1 6 -2 12
2 12 8 0 6 3 8 7 4 4 -3 -1 -14 -12 -24z m-44 -15 c-10 -9 -11 -8 -5 6 3 10 9
15 12 12 3 -3 0 -11 -7 -18z m-51 -21 c0 -2 -7 -7 -16 -10 -8 -3 -12 -2 -9 4
6 10 25 14 25 6z m-4158 -80 c7 4 8 2 4 -5 -6 -8 -12 -9 -20 -2 -7 6 -16 8
-20 4 -4 -4 -4 1 0 11 6 16 8 17 16 2 5 -9 14 -13 20 -10z m4078 0 c-7 -7 -13
-7 -20 0 -6 6 -3 10 10 10 13 0 16 -4 10 -10z m-3946 -80 c-3 -9 -10 -13 -15
-10 -5 3 -3 11 4 19 15 16 19 13 11 -9z m3802 -61 c-1 -8 -5 -17 -8 -21 -5 -4
-4 16 1 34 3 9 9 -1 7 -13z m-3496 -105 c0 -5 -2 -10 -4 -10 -3 0 -8 5 -11 10
-3 6 -1 10 4 10 6 0 11 -4 11 -10z m457 -252 c-3 -8 -6 -5 -6 6 -1 11 2 17 5
13 3 -3 4 -12 1 -19z m137 -17 c3 -5 -2 -15 -12 -22 -15 -12 -16 -12 -5 2 7 9
10 19 6 22 -3 4 -4 7 0 7 3 0 8 -4 11 -9z m2932 -77 c1 -9 0 -13 -4 -10 -3 4
-7 14 -8 22 -1 9 0 13 4 10 3 -4 7 -14 8 -22z m-2805 -7 c-10 -9 -11 -8 -5 6
3 10 9 15 12 12 3 -3 0 -11 -7 -18z m173 -63 c3 -8 2 -12 -4 -9 -6 3 -10 10
-10 16 0 14 7 11 14 -7z m90 -40 c5 -13 4 -14 -7 -6 -8 7 -18 8 -22 4 -5 -4
-5 -1 -1 6 10 17 23 15 30 -4z m266 -85 c15 -28 5 -23 -15 7 -9 15 -12 23 -6
20 6 -4 16 -16 21 -27z m150 -39 c0 -5 -5 -10 -11 -10 -5 0 -7 5 -4 10 3 6 8
10 11 10 2 0 4 -4 4 -10z m2120 2 c0 -5 -7 -9 -15 -9 -8 0 -12 4 -9 9 3 4 9 8
15 8 5 0 9 -4 9 -8z m-2076 -28 c6 -15 4 -15 -11 -3 -10 7 -20 15 -22 16 -2 2
3 3 11 3 9 0 19 -7 22 -16z m116 -34 c0 -5 -2 -10 -4 -10 -3 0 -8 5 -11 10 -3
6 -1 10 4 10 6 0 11 -4 11 -10z m1964 -68 c3 -5 -1 -9 -9 -9 -8 0 -12 4 -9 9
3 4 7 8 9 8 2 0 6 -4 9 -8z m-1580 -28 c3 -8 2 -12 -4 -9 -6 3 -10 10 -10 16
0 14 7 11 14 -7z m36 -4 c0 -5 -5 -10 -11 -10 -5 0 -7 5 -4 10 3 6 8 10 11 10
2 0 4 -4 4 -10z m227 -55 c0 -8 -4 -12 -9 -9 -5 3 -6 10 -3 15 9 13 12 11 12
-6z m77 -23 c3 -5 -1 -9 -9 -9 -8 0 -15 4 -15 9 0 4 4 8 9 8 6 0 12 -4 15 -8z
m831 -132 c4 -6 -1 -7 -11 -3 -13 5 -15 3 -9 -7 5 -9 4 -11 -4 -6 -6 4 -9 12
-6 17 8 12 22 12 30 -1z m85 -20 c0 -5 -4 -10 -10 -10 -5 0 -10 5 -10 10 0 6
5 10 10 10 6 0 10 -4 10 -10z m60 -8 c0 -13 -12 -22 -22 -16 -10 6 -1 24 13
24 5 0 9 -4 9 -8z"/>
<path d="M4481 8327 c-8 -10 -7 -14 2 -14 8 0 14 6 14 14 0 7 -1 13 -2 13 -2
0 -8 -6 -14 -13z"/>
<path d="M4515 8330 c-3 -5 -1 -10 4 -10 6 0 11 5 11 10 0 6 -2 10 -4 10 -3 0
-8 -4 -11 -10z"/>
<path d="M3465 8320 c-3 -6 1 -7 9 -4 18 7 21 14 7 14 -6 0 -13 -4 -16 -10z"/>
<path d="M3374 8292 c3 -5 0 -12 -6 -15 -7 -2 -10 -7 -7 -11 3 -4 12 0 18 8 9
11 9 16 0 22 -7 4 -9 3 -5 -4z"/>
<path d="M4817 8279 c7 -7 15 -10 18 -7 3 3 -2 9 -12 12 -14 6 -15 5 -6 -5z"/>
<path d="M3151 8224 c0 -11 3 -14 6 -6 3 7 2 16 -1 19 -3 4 -6 -2 -5 -13z"/>
<path d="M5003 8225 c0 -7 6 -11 14 -8 7 3 13 6 13 8 0 2 -6 5 -13 8 -8 3 -14
-1 -14 -8z"/>
<path d="M5100 8226 c0 -2 8 -10 18 -17 15 -13 16 -12 3 4 -13 16 -21 21 -21
13z"/>
<path d="M5140 8185 c0 -7 30 -13 34 -7 3 4 -4 9 -15 9 -10 1 -19 0 -19 -2z"/>
<path d="M5394 8109 c-3 -6 -2 -15 3 -20 5 -5 9 -1 9 11 0 23 -2 24 -12 9z"/>
<path d="M2575 8040 c-3 -5 -3 -10 2 -10 4 0 2 -4 -6 -9 -9 -6 -10 -11 -2 -15
6 -4 11 -4 12 1 0 4 2 16 4 26 4 19 -1 22 -10 7z"/>
<path d="M2469 7973 c-13 -16 -12 -17 4 -4 9 7 17 15 17 17 0 8 -8 3 -21 -13z"/>
<path d="M5713 7953 c4 -3 1 -13 -6 -22 -11 -14 -10 -14 5 -2 16 12 16 31 1
31 -4 0 -3 -3 0 -7z"/>
<path d="M2210 7841 c0 -6 4 -13 10 -16 6 -3 7 1 4 9 -7 18 -14 21 -14 7z"/>
<path d="M5900 7821 c0 -10 19 -25 25 -20 1 2 -3 10 -11 17 -8 7 -14 8 -14 3z"/>
<path d="M2004 7702 c3 -5 0 -12 -6 -15 -7 -2 -10 -7 -7 -11 3 -4 12 0 18 8 9
11 9 16 0 22 -7 4 -9 3 -5 -4z"/>
<path d="M1923 7641 c0 -11 5 -18 9 -15 4 3 5 11 1 19 -7 21 -12 19 -10 -4z"/>
<path d="M1766 7518 c3 -5 10 -6 15 -3 13 9 11 12 -6 12 -8 0 -12 -4 -9 -9z"/>
<path d="M1696 7452 c-3 -5 1 -9 9 -9 8 0 12 4 9 9 -3 4 -7 8 -9 8 -2 0 -6 -4
-9 -8z"/>
<path d="M1570 7339 c0 -5 5 -7 10 -4 6 3 10 8 10 11 0 2 -4 4 -10 4 -5 0 -10
-5 -10 -11z"/>
<path d="M6690 6921 c0 -7 -5 -9 -12 -5 -7 5 -8 3 -3 -5 5 -9 10 -10 18 -2 6
6 8 14 4 18 -4 3 -7 1 -7 -6z"/>
<path d="M1160 6849 c0 -5 5 -7 10 -4 6 3 10 8 10 11 0 2 -4 4 -10 4 -5 0 -10
-5 -10 -11z"/>
<path d="M1135 6840 c-3 -5 -1 -10 4 -10 6 0 11 5 11 10 0 6 -2 10 -4 10 -3 0
-8 -4 -11 -10z"/>
<path d="M7510 6726 c0 -2 7 -6 15 -10 8 -3 15 -1 15 4 0 6 -7 10 -15 10 -8 0
-15 -2 -15 -4z"/>
<path d="M7985 6681 c-3 -5 -2 -12 3 -15 5 -3 9 1 9 9 0 17 -3 19 -12 6z"/>
<path d="M8110 6539 c0 -5 5 -7 10 -4 6 3 10 8 10 11 0 2 -4 4 -10 4 -5 0 -10
-5 -10 -11z"/>
<path d="M8131 6466 c-9 -11 -8 -15 4 -20 8 -3 14 -11 13 -17 -2 -6 2 -13 9
-16 7 -2 11 4 10 16 0 11 -4 18 -8 15 -4 -2 -9 3 -12 10 -4 9 1 17 11 19 15 4
15 5 1 6 -9 0 -22 -5 -28 -13z"/>
<path d="M8175 6400 c-4 -6 -11 -7 -17 -4 -6 4 -6 -2 1 -15 14 -25 23 -28 14
-4 -4 10 -2 14 4 10 5 -3 10 0 10 8 0 18 -3 19 -12 5z"/>
<path d="M8180 6060 c8 -5 20 -10 25 -10 6 0 3 5 -5 10 -8 5 -19 10 -25 10 -5
0 -3 -5 5 -10z"/>
<path d="M675 5900 c-3 -5 -1 -10 4 -10 6 0 11 5 11 10 0 6 -2 10 -4 10 -3 0
-8 -4 -11 -10z"/>
<path d="M575 5580 c3 -5 8 -10 11 -10 2 0 4 5 4 10 0 6 -5 10 -11 10 -5 0 -7
-4 -4 -10z"/>
<path d="M8105 5471 c-3 -5 -2 -12 3 -15 5 -3 9 1 9 9 0 17 -3 19 -12 6z"/>
<path d="M8093 5439 c3 -9 0 -23 -6 -30 -7 -8 -3 -6 8 3 16 15 17 20 6 30 -11
11 -13 10 -8 -3z"/>
<path d="M500 5045 c0 -5 5 -17 10 -25 5 -8 10 -10 10 -5 0 6 -5 17 -10 25 -5
8 -10 11 -10 5z"/>
<path d="M7986 4953 c-11 -11 -6 -23 9 -23 8 0 15 4 15 9 0 13 -16 22 -24 14z"/>
<path d="M7976 4912 c-3 -5 1 -9 9 -9 8 0 12 4 9 9 -3 4 -7 8 -9 8 -2 0 -6 -4
-9 -8z"/>
<path d="M7804 4489 c-8 -14 13 -18 30 -6 16 12 16 13 -4 13 -12 0 -23 -4 -26
-7z"/>
<path d="M581 4007 c-9 -12 -7 -14 9 -13 11 0 21 5 21 11 1 16 -17 17 -30 2z"/>
<path d="M7362 3875 c-7 -8 -9 -15 -4 -15 5 0 15 7 22 15 16 19 -1 19 -18 0z"/>
<path d="M641 3784 c6 -7 16 -11 21 -8 11 7 3 17 -18 20 -12 2 -13 -1 -3 -12z"/>
<path d="M7386 3662 c-3 -5 1 -9 9 -9 8 0 12 4 9 9 -3 4 -7 8 -9 8 -2 0 -6 -4
-9 -8z"/>
<path d="M762 3471 c-11 -7 -11 -9 0 -14 9 -3 15 1 15 9 0 8 -1 14 -1 14 -1 0
-7 -4 -14 -9z"/>
<path d="M7350 3210 c6 -11 13 -20 16 -20 2 0 0 9 -6 20 -6 11 -13 20 -16 20
-2 0 0 -9 6 -20z"/>
<path d="M940 3059 c0 -5 5 -7 10 -4 6 3 10 8 10 11 0 2 -4 4 -10 4 -5 0 -10
-5 -10 -11z"/>
<path d="M7427 2929 c7 -7 15 -10 18 -7 3 3 -2 9 -12 12 -14 6 -15 5 -6 -5z"/>
<path d="M1213 2667 c1 -15 5 -27 10 -27 10 0 9 22 -2 39 -7 10 -9 7 -8 -12z"/>
<path d="M1456 2382 c-3 -4 4 -9 15 -9 23 -2 25 3 4 10 -8 4 -16 3 -19 -1z"/>
<path d="M6986 2152 c-3 -6 -1 -14 5 -17 14 -9 20 -2 10 14 -6 8 -11 9 -15 3z"/>
<path d="M6935 2100 c-3 -6 1 -7 9 -4 18 7 21 14 7 14 -6 0 -13 -4 -16 -10z"/>
<path d="M6547 1969 c7 -7 15 -10 18 -7 3 3 -2 9 -12 12 -14 6 -15 5 -6 -5z"/>
<path d="M6376 1833 c-6 -14 -5 -15 5 -6 7 7 10 15 7 18 -3 3 -9 -2 -12 -12z"/>
<path d="M2256 1772 c-3 -5 1 -15 9 -22 21 -17 27 -9 10 13 -7 10 -16 14 -19
9z"/>
<path d="M6196 1772 c-4 -7 -4 -12 0 -12 4 0 -1 -9 -11 -20 -15 -16 -16 -23
-6 -33 7 -6 12 -7 11 -2 -4 21 0 36 9 30 14 -8 20 7 11 29 -4 14 -9 16 -14 8z"/>
<path d="M2230 1756 c0 -2 8 -10 18 -17 15 -13 16 -12 3 4 -13 16 -21 21 -21
13z"/>
<path d="M2374 1679 c-3 -6 -1 -16 5 -22 9 -9 10 -7 5 7 -6 15 -4 17 6 11 9
-5 11 -4 6 3 -9 15 -13 15 -22 1z"/>
<path d="M2415 1640 c-3 -5 -1 -10 4 -10 6 0 11 5 11 10 0 6 -2 10 -4 10 -3 0
-8 -4 -11 -10z"/>
<path d="M2575 1560 c-3 -5 -1 -10 4 -10 6 0 11 5 11 10 0 6 -2 10 -4 10 -3 0
-8 -4 -11 -10z"/>
<path d="M6167 1536 c-3 -8 2 -20 11 -28 9 -8 13 -8 9 -1 -4 6 -1 14 5 16 10
4 10 6 0 6 -7 1 -10 6 -7 11 3 6 2 10 -3 10 -6 0 -12 -6 -15 -14z"/>
<path d="M6172 1458 c2 -6 10 -13 16 -14 7 -1 8 0 2 3 -5 2 -8 9 -4 14 3 5 0
9 -6 9 -7 0 -10 -5 -8 -12z"/>
<path d="M2895 1399 c1 -10 5 -22 10 -26 4 -5 5 -2 1 5 -4 7 -1 12 8 12 8 0
17 -6 19 -12 4 -8 6 -9 6 -2 1 7 -9 19 -22 27 -22 14 -23 14 -22 -4z"/>
<path d="M3000 1351 c0 -6 4 -13 10 -16 6 -3 7 1 4 9 -7 18 -14 21 -14 7z"/>
<path d="M3055 1329 c-4 -5 -4 -13 -1 -16 3 -4 6 0 6 8 0 11 2 11 10 -1 6 -9
10 -10 10 -3 0 17 -17 25 -25 12z"/>
<path d="M6164 1284 c3 -16 24 -34 41 -33 6 0 -1 6 -14 13 -16 9 -20 15 -11
18 11 3 10 6 -2 10 -11 5 -15 2 -14 -8z"/>
<path d="M3251 1244 c0 -11 3 -14 6 -6 3 7 2 16 -1 19 -3 4 -6 -2 -5 -13z"/>
<path d="M3390 1180 c0 -5 5 -10 10 -10 6 0 10 5 10 10 0 6 -4 10 -10 10 -5 0
-10 -4 -10 -10z"/>
<path d="M3564 1119 c-3 -6 2 -18 12 -27 17 -16 17 -16 5 0 -7 9 -10 22 -6 28
3 5 4 10 1 10 -3 0 -8 -5 -12 -11z"/>
<path d="M6179 1125 c-1 -3 -2 -8 -3 -12 -1 -5 -5 -14 -10 -21 -7 -12 -4 -12
15 -1 15 7 19 14 11 17 -6 2 -10 8 -6 13 3 5 3 9 0 9 -3 0 -7 -2 -7 -5z"/>
<path d="M3731 1054 c0 -11 3 -14 6 -6 3 7 2 16 -1 19 -3 4 -6 -2 -5 -13z"/>
<path d="M6190 1061 c0 -6 4 -13 10 -16 6 -3 7 1 4 9 -7 18 -14 21 -14 7z"/>
<path d="M3755 1049 c-4 -6 -5 -12 -2 -15 2 -3 7 2 10 11 7 17 1 20 -8 4z"/>
<path d="M4115 930 c-3 -5 -1 -10 4 -10 6 0 11 5 11 10 0 6 -2 10 -4 10 -3 0
-8 -4 -11 -10z"/>
<path d="M6176 902 c-3 -4 4 -9 15 -9 23 -2 25 3 4 10 -8 4 -16 3 -19 -1z"/>
<path d="M4230 889 c0 -5 5 -7 10 -4 6 3 10 8 10 11 0 2 -4 4 -10 4 -5 0 -10
-5 -10 -11z"/>
<path d="M4356 867 c3 -10 9 -15 12 -12 3 3 0 11 -7 18 -10 9 -11 8 -5 -6z"/>
<path d="M4547 807 c-3 -8 1 -14 8 -14 7 0 11 6 8 14 -3 7 -6 13 -8 13 -2 0
-5 -6 -8 -13z"/>
<path d="M6165 799 c5 -27 14 -39 28 -39 9 0 8 3 -1 8 -7 5 -10 16 -7 24 4 9
0 18 -9 21 -10 4 -14 0 -11 -14z"/>
<path d="M4706 791 c-4 -7 -5 -15 -2 -18 9 -9 19 4 14 18 -4 11 -6 11 -12 0z"/>
<path d="M4610 779 c0 -5 5 -7 10 -4 6 3 10 8 10 11 0 2 -4 4 -10 4 -5 0 -10
-5 -10 -11z"/>
<path d="M4803 749 c-2 -23 3 -25 10 -4 4 8 3 16 -1 19 -4 3 -9 -4 -9 -15z"/>
<path d="M4870 730 c-13 -8 -12 -10 3 -10 9 0 17 5 17 10 0 12 -1 12 -20 0z"/>
<path d="M6190 719 c0 -5 5 -7 10 -4 6 3 10 8 10 11 0 2 -4 4 -10 4 -5 0 -10
-5 -10 -11z"/>
<path d="M6164 667 c1 -11 7 -22 14 -23 7 -1 8 0 2 3 -8 3 -8 9 0 18 8 9 7 14
-3 18 -10 4 -14 -2 -13 -16z"/>
<path d="M5395 641 c-3 -6 -10 -9 -14 -7 -4 3 -8 -1 -8 -9 0 -11 4 -12 14 -4
10 9 18 8 31 -2 16 -13 16 -13 2 6 -8 11 -15 21 -16 23 -1 2 -5 -2 -9 -7z"/>
</g>
</svg>
