<svg width="18" height="18" viewBox="0 0 18 18" fill="none" xmlns="http://www.w3.org/2000/svg">
<path d="M10 3.29993C9.22645 3.29993 8.48459 3.57649 7.9376 4.06877C7.39062 4.56105 7.08333 5.22873 7.08333 5.92493C7.08333 6.62112 7.39062 7.2888 7.9376 7.78108C8.48459 8.27336 9.22645 8.54993 10 8.54993C10.7735 8.54993 11.5154 8.27336 12.0624 7.78108C12.6094 7.2888 12.9167 6.62112 12.9167 5.92493C12.9167 5.22873 12.6094 4.56105 12.0624 4.06877C11.5154 3.57649 10.7735 3.29993 10 3.29993ZM5.41667 5.92493C5.41667 4.83091 5.89955 3.7817 6.75909 3.00811C7.61863 2.23452 8.78442 1.79993 10 1.79993C11.2156 1.79993 12.3814 2.23452 13.2409 3.00811C14.1004 3.7817 14.5833 4.83091 14.5833 5.92493C14.5833 7.01894 14.1004 8.06815 13.2409 8.84174C12.3814 9.61533 11.2156 10.0499 10 10.0499C8.78442 10.0499 7.61863 9.61533 6.75909 8.84174C5.89955 8.06815 5.41667 7.01894 5.41667 5.92493ZM2.5 14.5499C2.5 13.5554 2.93899 12.6015 3.72039 11.8983C4.50179 11.195 5.5616 10.7999 6.66667 10.7999H13.3333C14.4384 10.7999 15.4982 11.195 16.2796 11.8983C17.061 12.6015 17.5 13.5554 17.5 14.5499V16.7999H2.5V14.5499ZM6.66667 12.2999C6.00363 12.2999 5.36774 12.537 4.8989 12.9589C4.43006 13.3809 4.16667 13.9532 4.16667 14.5499V15.2999H15.8333V14.5499C15.8333 13.9532 15.5699 13.3809 15.1011 12.9589C14.6323 12.537 13.9964 12.2999 13.3333 12.2999H6.66667Z" fill="#333333"/>
</svg>
