<svg width="18" height="18" viewBox="0 0 18 18" fill="none" xmlns="http://www.w3.org/2000/svg">
<path d="M9 3.29993C8.22645 3.29993 7.48459 3.57649 6.9376 4.06877C6.39062 4.56105 6.08333 5.22873 6.08333 5.92493C6.08333 6.62112 6.39062 7.2888 6.9376 7.78108C7.48459 8.27336 8.22645 8.54993 9 8.54993C9.77355 8.54993 10.5154 8.27336 11.0624 7.78108C11.6094 7.2888 11.9167 6.62112 11.9167 5.92493C11.9167 5.22873 11.6094 4.56105 11.0624 4.06877C10.5154 3.57649 9.77355 3.29993 9 3.29993ZM4.41667 5.92493C4.41667 4.83091 4.89955 3.7817 5.75909 3.00811C6.61863 2.23452 7.78442 1.79993 9 1.79993C10.2156 1.79993 11.3814 2.23452 12.2409 3.00811C13.1004 3.7817 13.5833 4.83091 13.5833 5.92493C13.5833 7.01894 13.1004 8.06815 12.2409 8.84174C11.3814 9.61533 10.2156 10.0499 9 10.0499C7.78442 10.0499 6.61863 9.61533 5.75909 8.84174C4.89955 8.06815 4.41667 7.01894 4.41667 5.92493ZM1.5 14.5499C1.5 13.5554 1.93899 12.6015 2.72039 11.8983C3.50179 11.195 4.5616 10.7999 5.66667 10.7999H12.3333C13.4384 10.7999 14.4982 11.195 15.2796 11.8983C16.061 12.6015 16.5 13.5554 16.5 14.5499V16.7999H1.5V14.5499ZM5.66667 12.2999C5.00363 12.2999 4.36774 12.537 3.8989 12.9589C3.43006 13.3809 3.16667 13.9532 3.16667 14.5499V15.2999H14.8333V14.5499C14.8333 13.9532 14.5699 13.3809 14.1011 12.9589C13.6323 12.537 12.9964 12.2999 12.3333 12.2999H5.66667Z" fill="#F78222"/>
</svg>
