<svg width="16" height="16" viewBox="0 0 16 16" fill="none" xmlns="http://www.w3.org/2000/svg">
<path d="M8 2.29993C7.22645 2.29993 6.48459 2.57649 5.93761 3.06877C5.39062 3.56105 5.08333 4.22873 5.08333 4.92493C5.08333 5.62112 5.39062 6.2888 5.93761 6.78108C6.48459 7.27336 7.22645 7.54993 8 7.54993C8.77355 7.54993 9.51541 7.27336 10.0624 6.78108C10.6094 6.2888 10.9167 5.62112 10.9167 4.92493C10.9167 4.22873 10.6094 3.56105 10.0624 3.06877C9.51541 2.57649 8.77355 2.29993 8 2.29993ZM3.41667 4.92493C3.41667 3.83091 3.89955 2.7817 4.75909 2.00811C5.61864 1.23452 6.78442 0.799927 8 0.799927C9.21558 0.799927 10.3814 1.23452 11.2409 2.00811C12.1004 2.7817 12.5833 3.83091 12.5833 4.92493C12.5833 6.01894 12.1004 7.06815 11.2409 7.84174C10.3814 8.61533 9.21558 9.04993 8 9.04993C6.78442 9.04993 5.61864 8.61533 4.75909 7.84174C3.89955 7.06815 3.41667 6.01894 3.41667 4.92493ZM0.5 13.5499C0.5 12.5554 0.938987 11.6015 1.72039 10.8983C2.50179 10.195 3.5616 9.79993 4.66667 9.79993H11.3333C12.4384 9.79993 13.4982 10.195 14.2796 10.8983C15.061 11.6015 15.5 12.5554 15.5 13.5499V15.7999H0.5V13.5499ZM4.66667 11.2999C4.00363 11.2999 3.36774 11.537 2.8989 11.9589C2.43006 12.3809 2.16667 12.9532 2.16667 13.5499V14.2999H13.8333V13.5499C13.8333 12.9532 13.5699 12.3809 13.1011 11.9589C12.6323 11.537 11.9964 11.2999 11.3333 11.2999H4.66667Z" fill="#F78222"/>
</svg>
