<svg width="18" height="18" viewBox="0 0 18 18" fill="none" xmlns="http://www.w3.org/2000/svg">
<g clip-path="url(#clip0_92_4853)">
<path d="M1.125 3.97357C2.12063 3.55732 3.54825 3.10845 4.9365 2.96895C6.43275 2.8182 7.70175 3.03982 8.4375 3.81495V14.7792C7.38563 14.1829 6.0525 14.1008 4.82288 14.2246C3.49538 14.3596 2.15663 14.7432 1.125 15.1369V3.97357ZM9.5625 3.81495C10.2982 3.03982 11.5673 2.8182 13.0635 2.96895C14.4518 3.10845 15.8794 3.55732 16.875 3.97357V15.1369C15.8422 14.7432 14.5046 14.3584 13.1771 14.2257C11.9464 14.1008 10.6144 14.1818 9.5625 14.7792V3.81495ZM9 2.79795C7.89188 1.84507 6.28537 1.70332 4.82288 1.84957C3.11962 2.0217 1.40062 2.60557 0.329625 3.0927C0.231355 3.13739 0.148022 3.20942 0.0895736 3.30018C0.031125 3.39095 2.98928e-05 3.49662 0 3.60457L0 15.9796C2.60572e-05 16.0737 0.0236668 16.1663 0.0687567 16.2489C0.113847 16.3315 0.178944 16.4015 0.258087 16.4524C0.33723 16.5034 0.427888 16.5336 0.521756 16.5404C0.615625 16.5473 0.709704 16.5304 0.795375 16.4914C1.78763 16.0414 3.38625 15.5003 4.93538 15.3439C6.5205 15.1842 7.84912 15.4418 8.56125 16.3306C8.61396 16.3963 8.68074 16.4493 8.75668 16.4857C8.83262 16.5222 8.91577 16.5411 9 16.5411C9.08423 16.5411 9.16738 16.5222 9.24332 16.4857C9.31925 16.4493 9.38604 16.3963 9.43875 16.3306C10.1509 15.4418 11.4795 15.1842 13.0635 15.3439C14.6138 15.5003 16.2135 16.0414 17.2046 16.4914C17.2903 16.5304 17.3844 16.5473 17.4782 16.5404C17.5721 16.5336 17.6628 16.5034 17.7419 16.4524C17.8211 16.4015 17.8862 16.3315 17.9312 16.2489C17.9763 16.1663 18 16.0737 18 15.9796V3.60457C18 3.49662 17.9689 3.39095 17.9104 3.30018C17.852 3.20942 17.7686 3.13739 17.6704 3.0927C16.5994 2.60557 14.8804 2.0217 13.1771 1.84957C11.7146 1.7022 10.1081 1.84507 9 2.79795Z" fill="#F78222"/>
</g>
<defs>
<clipPath id="clip0_92_4853">
<rect width="18" height="18" fill="white"/>
</clipPath>
</defs>
</svg>
