<svg width="15" height="15" viewBox="0 0 15 15" fill="none" xmlns="http://www.w3.org/2000/svg">
<circle cx="7.5" cy="7.5" r="7.5" fill="black" fill-opacity="0.15"/>
<path fill-rule="evenodd" clip-rule="evenodd" d="M11.3638 4.09093C11.3638 3.72927 11.2109 3.38243 10.9389 3.12669C10.6668 2.87096 10.2978 2.72729 9.91309 2.72729H5.0775C4.69276 2.72729 4.32377 2.87096 4.05172 3.12669C3.77966 3.38243 3.62683 3.72927 3.62683 4.09093V11.3764C3.62683 11.9309 4.29414 12.2537 4.77383 11.9314L7.4953 10.1041L10.2168 11.9314C10.6969 12.2541 11.3638 11.9314 11.3638 11.3768V4.09093ZM9.91309 3.63639C10.0413 3.63639 10.1643 3.68428 10.255 3.76952C10.3457 3.85476 10.3967 3.97038 10.3967 4.09093V10.935L7.91696 9.27002C7.79393 9.18739 7.6465 9.14298 7.4953 9.14298C7.34409 9.14298 7.19667 9.18739 7.07363 9.27002L4.59394 10.935V4.09093C4.59394 3.97038 4.64489 3.85476 4.73557 3.76952C4.82626 3.68428 4.94925 3.63639 5.0775 3.63639H9.91309Z" fill="white"/>
</svg>
