<svg width="15" height="15" viewBox="0 0 15 15" fill="none" xmlns="http://www.w3.org/2000/svg">
<g clip-path="url(#clip0_34_2593)">
<circle cx="7.5" cy="7.5" r="7.5" fill="black" fill-opacity="0.15"/>
<path fill-rule="evenodd" clip-rule="evenodd" d="M11.3636 4.09093C11.3636 3.72927 11.2108 3.38243 10.9388 3.12669C10.6667 2.87096 10.2977 2.72729 9.91297 2.72729H5.07738C4.69264 2.72729 4.32365 2.87096 4.0516 3.12669C3.77954 3.38243 3.6267 3.72927 3.6267 4.09093V11.3764C3.6267 11.9309 4.29401 12.2537 4.77371 11.9314L7.49518 10.1041L10.2166 11.9314C10.6968 12.2541 11.3636 11.9314 11.3636 11.3768V4.09093ZM9.91297 3.63639C10.0412 3.63639 10.1642 3.68428 10.2549 3.76952C10.3456 3.85476 10.3965 3.97038 10.3965 4.09093V10.935L7.91684 9.27002C7.79381 9.18739 7.64638 9.14298 7.49518 9.14298C7.34397 9.14298 7.19654 9.18739 7.07351 9.27002L4.59382 10.935V4.09093C4.59382 3.97038 4.64477 3.85476 4.73545 3.76952C4.82614 3.68428 4.94913 3.63639 5.07738 3.63639H9.91297Z" fill="white"/>
</g>
<defs>
<clipPath id="clip0_34_2593">
<rect width="15" height="15" fill="white" transform="matrix(-1 0 0 1 15 0)"/>
</clipPath>
</defs>
</svg>
