<svg width="12" height="12" viewBox="0 0 12 12" fill="none" xmlns="http://www.w3.org/2000/svg">
<rect x="3" y="2" width="6" height="7" fill="white"/>
<rect x="3" y="9" width="1" height="1" fill="white"/>
<rect x="8" y="9" width="1" height="1" fill="white"/>
<path fill-rule="evenodd" clip-rule="evenodd" d="M10 2.5C10 2.10218 9.84196 1.72064 9.56066 1.43934C9.27936 1.15804 8.89782 1 8.5 1H3.5C3.10218 1 2.72064 1.15804 2.43934 1.43934C2.15804 1.72064 2 2.10218 2 2.5V10.514C2 11.124 2.69 11.479 3.186 11.1245L6 9.1145L8.814 11.1245C9.3105 11.4795 10 11.1245 10 10.5145V2.5ZM8.5 2C8.63261 2 8.75979 2.05268 8.85355 2.14645C8.94732 2.24021 9 2.36739 9 2.5V10.0285L6.436 8.197C6.30879 8.10611 6.15635 8.05725 6 8.05725C5.84365 8.05725 5.69121 8.10611 5.564 8.197L3 10.0285V2.5C3 2.36739 3.05268 2.24021 3.14645 2.14645C3.24021 2.05268 3.36739 2 3.5 2H8.5Z" fill="#666666"/>
</svg>
