<svg width="10" height="10" viewBox="0 0 10 10" fill="none" xmlns="http://www.w3.org/2000/svg">
<g clip-path="url(#clip0_34_2683)">
<path d="M4.99996 3.33329C4.07913 3.33329 3.33329 4.07913 3.33329 4.99996C3.33329 5.92079 4.07913 6.66663 4.99996 6.66663C5.92079 6.66663 6.66663 5.92079 6.66663 4.99996C6.66663 4.07913 5.92079 3.33329 4.99996 3.33329ZM8.72496 4.58329C8.63058 3.73834 8.25169 2.9506 7.6505 2.34942C7.04932 1.74823 6.26158 1.36934 5.41663 1.27496V0.416626H4.58329V1.27496C3.73834 1.36934 2.9506 1.74823 2.34942 2.34942C1.74823 2.9506 1.36934 3.73834 1.27496 4.58329H0.416626V5.41663H1.27496C1.36934 6.26158 1.74823 7.04932 2.34942 7.6505C2.9506 8.25169 3.73834 8.63058 4.58329 8.72496V9.58329H5.41663V8.72496C6.26158 8.63058 7.04932 8.25169 7.6505 7.6505C8.25169 7.04932 8.63058 6.26158 8.72496 5.41663H9.58329V4.58329H8.72496ZM4.99996 7.91663C3.38746 7.91663 2.08329 6.61246 2.08329 4.99996C2.08329 3.38746 3.38746 2.08329 4.99996 2.08329C6.61246 2.08329 7.91663 3.38746 7.91663 4.99996C7.91663 6.61246 6.61246 7.91663 4.99996 7.91663Z" fill="black" fill-opacity="0.5"/>
</g>
<defs>
<clipPath id="clip0_34_2683">
<rect width="10" height="10" fill="white"/>
</clipPath>
</defs>
</svg>
