<svg width="9" height="12" viewBox="0 0 9 12" fill="none" xmlns="http://www.w3.org/2000/svg">
<path fill-rule="evenodd" clip-rule="evenodd" d="M4.80357 10.5825L5.16414 10.1762C5.57329 9.70799 5.94148 9.26246 6.26871 8.8396L6.539 8.48303C7.66776 6.96265 8.23214 5.75637 8.23214 4.86418C8.23214 2.96018 6.69729 1.41675 4.80357 1.41675C2.90986 1.41675 1.375 2.96018 1.375 4.86418C1.375 5.75637 1.93938 6.96284 3.06814 8.4836L3.33843 8.84018C3.8056 9.43863 4.2943 10.0194 4.80357 10.5825Z" stroke="#666666" stroke-linecap="round" stroke-linejoin="round"/>
<path d="M4.80357 6.27389C5.59255 6.27389 6.23214 5.6343 6.23214 4.84532C6.23214 4.05634 5.59255 3.41675 4.80357 3.41675C4.01459 3.41675 3.375 4.05634 3.375 4.84532C3.375 5.6343 4.01459 6.27389 4.80357 6.27389Z" stroke="#666666" stroke-linecap="round" stroke-linejoin="round"/>
</svg>
