<svg width="11" height="12" viewBox="0 0 11 12" fill="none" xmlns="http://www.w3.org/2000/svg">
<path d="M1.37498 2.79156H9.62498C9.70851 2.79182 9.79038 2.81486 9.86179 2.85819C9.9332 2.90152 9.99144 2.96351 10.0302 3.03748C10.069 3.11145 10.0869 3.1946 10.082 3.27798C10.077 3.36136 10.0495 3.44181 10.0022 3.51068L5.87719 9.46902C5.70623 9.71606 5.29465 9.71606 5.12323 9.46902L0.998228 3.51068C0.950481 3.44196 0.922481 3.36146 0.917271 3.27794C0.91206 3.19442 0.929837 3.11107 0.968672 3.03695C1.00751 2.96282 1.06591 2.90075 1.13755 2.85749C1.20918 2.81423 1.2913 2.79143 1.37498 2.79156Z" fill="#666666"/>
</svg>
