<svg width="16" height="16" viewBox="0 0 16 16" fill="none" xmlns="http://www.w3.org/2000/svg">
<path d="M8 2.5L7.8435 2.64L2.14 8.4065L1.797 8.7505L2.1405 9.1105L6.8905 13.8605L7.2505 14.204L7.5955 13.8605L13.3605 8.157L13.5 8V2.5H8ZM8.422 3.5H12.5V7.578L7.25 12.797L3.203 8.75L8.422 3.5ZM11 4.5C10.8674 4.5 10.7402 4.55268 10.6464 4.64645C10.5527 4.74021 10.5 4.86739 10.5 5C10.5 5.13261 10.5527 5.25979 10.6464 5.35355C10.7402 5.44732 10.8674 5.5 11 5.5C11.1326 5.5 11.2598 5.44732 11.3536 5.35355C11.4473 5.25979 11.5 5.13261 11.5 5C11.5 4.86739 11.4473 4.74021 11.3536 4.64645C11.2598 4.55268 11.1326 4.5 11 4.5Z" fill="#666666"/>
</svg>
